<?xml version="1.0" encoding="UTF-8"?>
<svg width="128" height="128" enable-background="new" version="1.0" xmlns="http://www.w3.org/2000/svg" xmlns:xlink="http://www.w3.org/1999/xlink">
 <defs>
  <linearGradient id="linearGradient44">
   <stop stop-color="#949494" offset="0"/>
   <stop stop-color="#4a4a4a" offset=".6"/>
  </linearGradient>
  <linearGradient id="linearGradient4516">
   <stop offset="0"/>
   <stop stop-opacity="0" offset="1"/>
  </linearGradient>
  <radialGradient id="radialGradient4224" cx="78.15" cy="258.54" r="22" gradientTransform="matrix(1 0 0 .5 0 116.5)" gradientUnits="userSpaceOnUse" xlink:href="#linearGradient4516"/>
  <radialGradient id="radialGradient70-8" cx="210" cy="233" r="22" gradientTransform="matrix(1 0 0 .5 0 116.5)" gradientUnits="userSpaceOnUse" xlink:href="#linearGradient4516"/>
  <filter id="filter11193" x="-.24657" y="-.49315" width="1.4931" height="1.9863" color-interpolation-filters="sRGB">
   <feGaussianBlur stdDeviation="4.5205316"/>
  </filter>
  <filter id="filter11205" x="-.095939" y="-.19188" width="1.1919" height="1.3838" color-interpolation-filters="sRGB">
   <feGaussianBlur stdDeviation="1.7588832"/>
  </filter>
  <filter id="filter4662-4" x="-.051184" y="-.045189" width="1.1024" height="1.0904">
   <feGaussianBlur stdDeviation="8.68"/>
  </filter>
  <clipPath id="clipPath110-6">
   <path d="m110.85 61.432c0 30.51-20.33 50.526-45.408 50.526s-45.409-20.016-45.409-50.526c0-30.51 20.33-59.959 45.409-59.959s45.408 29.45 45.408 59.959z" enable-background="new"/>
  </clipPath>
  <radialGradient id="radialGradient113-4" cx="57.6" cy="28.028" r="24.497" gradientTransform="matrix(.841 0 0 1.0122 2.5605 -2.724)" gradientUnits="userSpaceOnUse">
   <stop stop-color="#fff" offset="0"/>
   <stop stop-color="#fff" stop-opacity=".7782" offset=".31072"/>
   <stop stop-color="#fff" stop-opacity="0" offset="1"/>
  </radialGradient>
  <radialGradient id="radialGradient121-8" cx="57.6" cy="28.028" r="24.497" gradientTransform="matrix(1.7753 0 0 2.3196 -29.399 14.582)" gradientUnits="userSpaceOnUse">
   <stop stop-opacity=".04095" offset="0"/>
   <stop stop-opacity="0" offset="1"/>
  </radialGradient>
  <radialGradient id="radialGradient125-8" cx="52.851" cy="32.799" r="64" gradientTransform="matrix(-.3917 1.3965 -1.0087 -.28293 107.99 -43.286)" gradientUnits="userSpaceOnUse">
   <stop stop-color="#fff" offset="0"/>
   <stop stop-color="#f3f3f2" offset=".66164"/>
   <stop stop-color="#e2e2df" offset="1"/>
  </radialGradient>
  <linearGradient id="linearGradient3826-8" x1="62.433" x2="236.77" y1="159.98" y2="169.83" gradientTransform="translate(0 -2.9951)" gradientUnits="userSpaceOnUse">
   <stop stop-color="#b8b8b8" offset="0"/>
   <stop stop-opacity=".39638" offset=".20278"/>
   <stop stop-opacity=".40992" offset=".71535"/>
   <stop stop-color="#c8c8c8" offset="1"/>
  </linearGradient>
  <linearGradient id="linearGradient3832-9" x1="61.104" x2="235.26" y1="163.05" y2="163.05" gradientTransform="translate(0 -3.165)" gradientUnits="userSpaceOnUse">
   <stop stop-color="#f8f8f8" offset="0"/>
   <stop stop-color="#fff" offset=".26258"/>
   <stop stop-color="#eee" offset="1"/>
  </linearGradient>
  <linearGradient id="linearGradient3836-7" x1="31.853" x2="95.671" y1="8.0664" y2="100.82" gradientUnits="userSpaceOnUse">
   <stop stop-color="#e7e7e7" stop-opacity=".18904" offset="0"/>
   <stop stop-color="#dadada" stop-opacity=".069765" offset=".62534"/>
   <stop stop-color="#fff" stop-opacity=".39211" offset="1"/>
  </linearGradient>
  <linearGradient id="linearGradient45" x1="63.823" x2="159.79" y1="169.38" y2="169.38" gradientUnits="userSpaceOnUse" xlink:href="#linearGradient44"/>
  <linearGradient id="linearGradient11" x1="64.203" x2="64.203" y1=".9953" y2="106.48" gradientUnits="userSpaceOnUse">
   <stop stop-opacity=".01" offset="0"/>
   <stop stop-opacity=".04" offset="1"/>
  </linearGradient>
  <linearGradient id="linearGradient79" x1="63.823" x2="159.79" y1="169.38" y2="169.38" gradientTransform="matrix(.94407 0 0 .92249 8.0165 12.907)" gradientUnits="userSpaceOnUse" xlink:href="#linearGradient44"/>
  <linearGradient id="linearGradient80" x1="63.823" x2="159.79" y1="169.38" y2="169.38" gradientTransform="matrix(.94407 0 0 .92249 7.8136 12.907)" gradientUnits="userSpaceOnUse" xlink:href="#linearGradient44"/>
 </defs>
 <g transform="translate(-296,-20)">
  <g transform="translate(296,20)" enable-background="new">
   <rect width="128" height="128" fill="none"/>
   <g transform="matrix(.52021 0 0 .55381 -11.695 -24.147)" fill="url(#radialGradient70-8)" stroke-width="2.0002">
    <ellipse transform="matrix(3.6885,0,0,1.8366,-629.08,-192.86)" cx="210" cy="233" rx="22" ry="11" color="#000000" enable-background="accumulate" filter="url(#filter11193)" opacity=".66667"/>
    <ellipse transform="matrix(1.9572,0,0,1.5917,-265.5,-137.15)" cx="210" cy="233" rx="22" ry="11" color="#000000" enable-background="accumulate" filter="url(#filter11205)"/>
   </g>
   <path transform="matrix(.98067 0 0 .96885 -.17859 3.5344)" d="m64.297 1.4961c-7.6993 0.24876-15.195 3.4735-21.268 8.3398a2.0023 2.0023 0 0 1-2e-3 0.00195c-8.3819 6.701-14.472 16.083-18.305 26.186-5.05e-4 0.0013-0.0014 0.0026-2e-3 0.0039-2.11e-4 5.55e-4 2.11e-4 0.0014 0 2e-3 -4.5078 11.982-5.9503 25.213-3.4961 37.75 1.9723 10.022 6.8099 19.579 14.258 26.5a2.0023 2.0023 0 0 1 0.01172 0.0117c7.0814 6.685 16.555 10.793 26.273 11.518a2.0023 2.0023 0 0 1 0.01563 0c9.8201 0.80733 19.949-1.6511 28.104-7.1484a2.0023 2.0023 0 0 1 0.01172-8e-3c8.2958-5.5085 14.488-14.019 17.744-23.465a2.0023 2.0023 0 0 1 2e-3 -0.0059c3.8205-10.99 4.0434-23.109 1.6289-34.547l-2e-3 -0.0059c-2.5118-11.723-7.8334-22.954-15.945-31.723l-2e-3 -2e-3c-5.8519-6.3018-13.391-11.227-21.736-12.83a2.0023 2.0023 0 0 1-0.0098-0.00195c-2.3878-0.469-4.837-0.65573-7.2812-0.57618z" enable-background="new" fill="none" stroke="url(#linearGradient11)" stroke-width="3.0777" style="mix-blend-mode:normal"/>
   <g transform="matrix(.98067 0 0 .96885 -.17859 3.5344)" clip-path="url(#clipPath110-6)" stroke-width="1.0259">
    <rect x="1.442" width="128" height="128" fill="url(#radialGradient125-8)"/>
    <ellipse cx="72.86" cy="79.595" rx="43.49" ry="56.823" fill="url(#radialGradient121-8)"/>
    <g transform="matrix(.52021 0 0 .5371 -11.695 -17.74)" clip-path="none" stroke-width="2.0195">
     <g>
      <path d="m132.55 201.05 11.459-14.177 10.609 14.177z" fill="url(#linearGradient45)"/>
      <path d="m140.07 162.53h-13.785v-3.2734l4.8341-5.648c0.60893-0.71057 1.1616-1.3658 1.6582-1.9643 0.49652-0.59857 0.92276-1.1826 1.2787-1.7512 0.35601-0.56814 0.63236-1.1467 0.82909-1.7353 0.19672-0.58859 0.29513-1.2234 0.29513-1.9031-2e-5 -0.75089-0.21078-1.3345-0.63236-1.7507-0.41224-0.41717-0.96965-0.62437-1.6723-0.62437-0.74011 0-1.4521 0.1995-2.1359 0.59355-0.68392 0.39448-1.4006 0.959-2.15 1.69l-2.3608-3.0295c0.42158-0.41715 0.86187-0.81209 1.3209-1.1875 0.45903-0.38542 0.96493-0.72599 1.5177-1.0203 0.55273-0.29475 1.1617-0.52826 1.8268-0.70058 0.66518-0.18136 1.41-0.27206 2.2343-0.27206 0.98363 0 1.8643 0.14512 2.6419 0.43988 0.78693 0.29472 1.4568 0.71594 2.0096 1.2641 0.55271 0.53779 0.97428 1.1925 1.2647 1.9638 0.29982 0.7713 0.44969 1.6392 0.4497 2.6032-1e-5 0.87332-0.14054 1.7104-0.42161 2.5125-0.28109 0.79173-0.66515 1.573-1.1523 2.3442-0.48717 0.76134-1.054 1.5231-1.7004 2.284-0.63707 0.75088-1.3209 1.5177-2.0516 2.2989l-2.4733 2.6948v0.2131h8.3753v3.9585" fill="url(#linearGradient80)"/>
      <path d="m152.21 148.3c0.93902 0 1.8132 0.14512 2.6224 0.44436 0.80919 0.29473 1.5135 0.72506 2.1129 1.2941 0.59941 0.56819 1.0689 1.2788 1.4087 2.1312 0.33961 0.84251 0.50945 1.812 0.50946 2.9083-1e-5 1.2075-0.18482 2.2935-0.55445 3.258-0.36966 0.95405-0.91409 1.7661-1.6334 2.4358-0.71927 0.65976-1.6134 1.1672-2.6823 1.5227-1.059 0.35823-2.2777 0.5328-3.6564 0.5328-0.54945 0-1.0939-0.0454-1.6334-0.0725-0.53946-0.0499-1.059-0.12699-1.5585-0.22674-0.48955-0.0904-0.95908-0.21311-1.4086-0.36728-0.43958-0.15419-0.83916-0.33102-1.1988-0.5328v-4.0651c0.34963 0.20404 0.75422 0.39905 1.2138 0.57862 0.45956 0.1723 0.93407 0.32193 1.4236 0.45659 0.49951 0.12246 0.999 0.22222 1.4985 0.3038 0.4995 0.0727 0.974 0.10902 1.4236 0.10902 1.3387 0 2.3576-0.2766 3.057-0.83706 0.69932-0.56817 1.049-1.4664 1.049-2.6948 0-1.0963-0.34466-1.9284-1.034-2.4971-0.67933-0.57858-1.7333-0.86787-3.1619-0.86787-0.25981 0-0.53949 0-0.83919 0.0455-0.28966 0.0455-0.57941 0.068-0.86913 0.11784-0.27982 0.0498-0.54947 0.1088-0.80921 0.1678-0.25974 0.0498-0.48453 0.10878-0.67433 0.16778l-1.8432-1.0048 0.82415-11.343h11.569v3.9894h-7.5526l-0.35965 4.3697c0.31974-0.0727 0.68933-0.14054 1.1089-0.21763 0.42957-0.068 0.97902-0.10856 1.6484-0.10856" fill="url(#linearGradient79)"/>
      <path d="m63.823 146.15v11.875c0.78035 0.8412 1.6388 1.6607 2.5718 2.4592v-11.875c-0.93304-0.79848-1.7915-1.618-2.5718-2.4592zm5.4253 9.3675v7.1786c0.98668 0.69694 2.0338 1.3762 3.1388 2.0349v-7.1786c-1.1049-0.65872-2.1521-1.338-3.1388-2.0349zm6.5629 3.9197v7.1824c1.185 0.60446 2.4223 1.187 3.7094 1.7534v-7.1786c-1.2871-0.56637-2.5245-1.1526-3.7094-1.7571zm16.542 1.622v11.872c1.5737 0.45013 3.1902 0.87985 4.8471 1.2878v-11.872c-1.6569-0.40794-3.2734-0.83766-4.8471-1.2878zm-8.8419 1.7684v7.1824c1.3805 0.52627 2.808 1.0302 4.2801 1.5168v-7.1786c-1.4721-0.48661-2.8997-0.9943-4.2801-1.5206zm55.582 4.8733v11.872c2.3486 0.0795 4.7238 0.12856 7.1223 0.14643v-11.872c-2.3984-0.0179-4.7737-0.0669-7.1223-0.14643zm-36.76 0.50686v7.1786c1.7665 0.37098 3.572 0.72212 5.414 1.0475v-7.1824c-1.842-0.32539-3.6475-0.67277-5.414-1.0438zm11.113 1.9598v7.1824c1.9605 0.28523 3.9564 0.54561 5.9847 0.78093v-7.1824c-2.0283-0.23533-4.0242-0.4957-5.9847-0.78094zm12.255 1.4192v7.1824c2.1548 0.18924 4.341 0.35029 6.5554 0.48433v-7.1786c-2.2143-0.13404-4.4005-0.29884-6.5554-0.48809z" fill="url(#linearGradient45)"/>
     </g>
     <g opacity=".79208" stroke-width="2.0195">
      <path d="m238.69 145.4-0.48058-3.0704c0 21.123-40.264 34.403-89.933 34.403-49.669 0-89.933-13.279-89.933-34.403l-0.48058 3.0704c-1e-6 21.123 40.48 34.403 90.414 34.403 49.934 0 90.414-13.279 90.414-34.403" fill="url(#linearGradient3826-8)" opacity=".38935"/>
      <path d="m239.78 147.99c0 21.123-40.964 34.403-91.495 34.403-50.531 0-91.495-13.279-91.495-34.403l1.0813-2.7565c-1e-6 21.123 40.48 34.403 90.414 34.403 49.934 0 90.414-13.279 90.414-34.403l1.0813 2.7565" fill="url(#linearGradient3832-9)" opacity="1"/>
     </g>
     <path d="m238.21 145.33c0 21.123-40.264 34.403-89.933 34.403-49.669 0-89.933-13.279-89.933-34.403" display="none" fill="none" stroke="#dc8add" stroke-linecap="round" stroke-width=".97043"/>
     <path d="m238.21 138.15c0 21.123-40.264 34.403-89.933 34.403-49.669 0-89.933-13.279-89.933-34.403" display="none" fill="none" stroke="#dc8add" stroke-linecap="round" stroke-width=".97043"/>
    </g>
    <path transform="matrix(.49458 0 0 .45157 -97.448 -2.6257)" d="m118-121v461h407v-461zm194.28 152.12c48.208 0 86.281 41.632 86.281 100.28 0 58.649-36.073 106.12-84.281 106.12s-75.281-43.476-75.281-102.12c0-58.649 25.073-104.28 73.281-104.28z" clip-path="none" fill="#fff" filter="url(#filter4662-4)" opacity=".35" stroke-width="2.2588" style="mix-blend-mode:normal"/>
    <ellipse cx="51.002" cy="25.645" rx="20.602" ry="24.795" fill="url(#radialGradient113-4)"/>
    <path d="m110.85 61.432c0 30.51-20.33 50.526-45.408 50.526s-45.409-20.016-45.409-50.526c0-30.51 20.33-59.959 45.409-59.959s45.408 29.45 45.408 59.959z" enable-background="new" fill="none" stroke="url(#linearGradient3836-7)" stroke-width="3.0777" style="mix-blend-mode:normal"/>
   </g>
  </g>
 </g>
</svg>
