<?xml version="1.0" encoding="UTF-8"?>
<svg width="16" height="16" version="1.1" xmlns="http://www.w3.org/2000/svg">
 <path d="m8-0.0019531c-1.8009-9.2919e-4 -3.3386 1.2598-4.5 2.8711-1.0739 1.4899-1.8381 3.365-1.9844 5.2793 0.055015 0.14102 0.14497 0.28888 0.32812 0.45703 0.087804 0.080608 0.22098 0.16137 0.33984 0.24219v-0.89062l0.37695 0.21875c0.081555 0.047669 0.21577 0.10505 0.34961 0.16992l0.14062 0.068359v0.89648c0.052859 0.022102 0.091344 0.046948 0.14648 0.068359 0.16406 0.063705 0.36907 0.11145 0.55273 0.16797v-0.85742l0.31836 0.091797c0.165 0.047521 0.33604 0.090635 0.51562 0.13281l0.19336 0.046875v0.84961c0.31591 0.064526 0.6289 0.13091 0.97266 0.17773v-1.248l1.252 0.097656v1.2695c0.328 0.01891 0.65627 0.03906 0.99805 0.03906 1.8942 0 3.609-0.30328 4.8047-0.76758 0.59785-0.23215 1.0636-0.50732 1.3535-0.77344 0.17787-0.16329 0.26778-0.30771 0.32422-0.44531-0.1443-1.9183-0.91029-3.7985-1.9863-5.291-1.1614-1.6109-2.696-2.8702-4.4961-2.8711zm-6.5 9.4375c0.1068 1.9971 0.77305 3.6008 1.8516 4.7148 1.2224 1.2627 2.912 1.8516 4.6465 1.8516s3.428-0.58889 4.6504-1.8516c1.0785-1.1141 1.7432-2.7178 1.8496-4.7148-0.3716 0.26829-0.81943 0.50017-1.332 0.69922-1.3557 0.52642-3.1669 0.83594-5.166 0.83594-1.9991 0-3.8103-0.30951-5.166-0.83594-0.51319-0.19927-0.96213-0.43054-1.334-0.69922zm6.4941 2.0117c0.085998-0.0023 0.16715 0.03973 0.21484 0.11133l1.3457 2.0371c0.11096 0.16651-0.0089 0.38941-0.20898 0.38867h-2.6914c-0.20009 7.4e-4 -0.31994-0.22216-0.20898-0.38867l1.3457-2.0371c0.045399-0.06813 0.12127-0.10973 0.20312-0.11133z" fill="#222"/>
</svg>
