<?xml version="1.0" encoding="UTF-8" standalone="no"?>
<svg
   xmlns:dc="http://purl.org/dc/elements/1.1/"
   xmlns:cc="http://creativecommons.org/ns#"
   xmlns:rdf="http://www.w3.org/1999/02/22-rdf-syntax-ns#"
   xmlns:svg="http://www.w3.org/2000/svg"
   xmlns="http://www.w3.org/2000/svg"
   xmlns:sodipodi="http://sodipodi.sourceforge.net/DTD/sodipodi-0.dtd"
   xmlns:inkscape="http://www.inkscape.org/namespaces/inkscape"
   id="svg7384"
   height="16"
   width="16"
   version="1.1"
   sodipodi:docname="gnome-pomodoro-symbolic.svg"
   inkscape:version="1.0.2 (e86c870879, 2021-01-15)">
  <sodipodi:namedview
     pagecolor="#ffffff"
     bordercolor="#666666"
     borderopacity="1"
     objecttolerance="10"
     gridtolerance="10"
     guidetolerance="10"
     inkscape:pageopacity="0"
     inkscape:pageshadow="2"
     inkscape:window-width="1561"
     inkscape:window-height="815"
     id="namedview21"
     showgrid="true"
     inkscape:zoom="44.547728"
     inkscape:cx="5.2720359"
     inkscape:cy="10.050732"
     inkscape:window-x="26"
     inkscape:window-y="23"
     inkscape:window-maximized="0"
     inkscape:current-layer="g4190"
     inkscape:document-rotation="0">
    <inkscape:grid
       type="xygrid"
       id="grid877" />
  </sodipodi:namedview>
  <title
     id="title9167">Gnome Symbolic Icon Theme</title>
  <defs
     id="defs10">
    <clipPath
       id="clipPath6259-6-8-25-4">
      <rect
         style="color:#bebebe;fill:#bebebe"
         id="rect6261-4-9-24-2"
         y="221.5"
         x="26.999001"
         height="4.8734999"
         width="1.8763" />
    </clipPath>
    <clipPath
       id="clipPath6265-33-4">
      <rect
         style="color:#bebebe;fill:#bebebe"
         id="rect6267-6-5"
         y="221.33"
         x="26.966"
         height="5.2158999"
         width="2.8977001" />
    </clipPath>
    <clipPath
       id="clipPath6279-6-1">
      <rect
         style="color:#bebebe;fill:#bebebe"
         id="rect6281-3-1"
         y="220.75"
         x="26.85"
         height="6.375"
         width="3.825" />
    </clipPath>
    <clipPath
       id="clipPath4595"
       clipPathUnits="userSpaceOnUse">
      <path
         style="fill:#ff0000;fill-opacity:1;stroke:none;stroke-width:1;stroke-linecap:butt;stroke-linejoin:round;stroke-miterlimit:4;stroke-dasharray:none;stroke-opacity:1"
         d="m -14.282595,8.1440635 0,1.4185643 c 0,0.9634652 2.014718,1.7441142 4.4999998,1.7441142 2.4852812,0 4.5000002,-0.780649 4.5000002,-1.7441142 l 0,-1.4185643 c 0,0.5866082 -0.753237,1.1023152 -1.898438,1.4185643 -0.7357131,0.2031681 -1.6294525,0.3255484 -2.6015622,0.3255484 -0.9721098,0 -1.8678018,-0.1223803 -2.6035158,-0.3255484 -1.1452,-0.3162491 -1.896484,-0.8319561 -1.896484,-1.4185643 z"
         id="path4597" />
    </clipPath>
  </defs>
  <metadata
     id="metadata90">
    <rdf:RDF>
      <cc:Work
         rdf:about="">
        <dc:format>image/svg+xml</dc:format>
        <dc:type
           rdf:resource="http://purl.org/dc/dcmitype/StillImage" />
        <dc:title>Gnome Symbolic Icon Theme</dc:title>
      </cc:Work>
    </rdf:RDF>
  </metadata>
  <g
     transform="translate(17.716189,-0.98422722)"
     id="g4190">
    <path
       id="path4366-3"
       style="color:#000000;font-style:normal;font-variant:normal;font-weight:normal;font-stretch:normal;font-size:medium;line-height:normal;font-family:sans-serif;text-indent:0;text-align:start;text-decoration:none;text-decoration-line:none;text-decoration-style:solid;text-decoration-color:#000000;letter-spacing:normal;word-spacing:normal;text-transform:none;writing-mode:lr-tb;direction:ltr;baseline-shift:baseline;text-anchor:start;white-space:normal;clip-rule:nonzero;display:inline;overflow:visible;visibility:visible;isolation:auto;mix-blend-mode:normal;color-interpolation:sRGB;color-interpolation-filters:linearRGB;solid-color:#000000;solid-opacity:1;fill:#bebebe;fill-opacity:1;fill-rule:nonzero;stroke:none;stroke-width:2;stroke-linecap:butt;stroke-linejoin:miter;stroke-miterlimit:4;stroke-dasharray:none;stroke-dashoffset:0;stroke-opacity:1;color-rendering:auto;image-rendering:auto;shape-rendering:auto;text-rendering:auto;enable-background:new"
       d="M 8 -0.001953125 C 6.19914 -0.002882325 4.661396 1.25783 3.5 2.8691406 C 2.4261404 4.3590053 1.6619302 6.2341842 1.515625 8.1484375 C 1.5706398 8.2894584 1.660594 8.4373216 1.84375 8.6054688 C 1.9315536 8.6860769 2.0647296 8.766835 2.1835938 8.8476562 L 2.1835938 8.3925781 L 2.1835938 7.9570312 L 2.5605469 8.1757812 C 2.6421021 8.2234505 2.7763204 8.2808271 2.9101562 8.3457031 L 3.0507812 8.4140625 L 3.0507812 9.3105469 C 3.1036402 9.332649 3.1421255 9.3574951 3.1972656 9.3789062 C 3.3613237 9.4426106 3.5663398 9.4903514 3.75 9.546875 L 3.75 9.0214844 L 3.75 8.6894531 L 4.0683594 8.78125 C 4.2333567 8.8287712 4.4044026 8.8718846 4.5839844 8.9140625 L 4.7773438 8.9609375 L 4.7773438 9.8105469 C 5.0932518 9.8750733 5.406239 9.9414571 5.75 9.9882812 L 5.75 8.7402344 L 7.0019531 8.8378906 L 7.0019531 10.107422 C 7.3299505 10.126334 7.6582209 10.146484 8 10.146484 C 9.894197 10.146484 11.608978 9.8432033 12.804688 9.3789062 C 13.402539 9.1467575 13.868328 8.8715898 14.158203 8.6054688 C 14.336069 8.4421788 14.425982 8.2977564 14.482422 8.1601562 C 14.338118 6.2418139 13.572129 4.3616847 12.496094 2.8691406 C 11.334702 1.2582003 9.800131 -0.001027325 8 -0.001953125 z M 1.5 9.4355469 C 1.6067962 11.432618 2.2730501 13.036337 3.3515625 14.150391 C 4.5739475 15.413059 6.2635889 16.001953 7.9980469 16.001953 C 9.7325049 16.001953 11.426049 15.413059 12.648438 14.150391 C 13.726948 13.036336 14.391613 11.432618 14.498047 9.4355469 C 14.126442 9.7038374 13.678618 9.9357199 13.166016 10.134766 C 11.810314 10.661189 9.999124 10.970703 8 10.970703 C 6.000877 10.970703 4.1896854 10.661189 2.8339844 10.134766 C 2.3207979 9.9354934 1.871851 9.7042308 1.5 9.4355469 z M 7.9941406 11.447266 C 8.080139 11.444942 8.1612923 11.486994 8.2089844 11.558594 L 9.5546875 13.595703 C 9.6656457 13.76221 9.5457925 13.985115 9.3457031 13.984375 L 6.6542969 13.984375 C 6.4542025 13.985115 6.3343543 13.76221 6.4453125 13.595703 L 7.7910156 11.558594 C 7.8364141 11.490466 7.9122896 11.448866 7.9941406 11.447266 z "
       transform="translate(-17.716189,0.98422722)" />
    <g
       id="g875"
       style="opacity:1;fill:#cc0000;stroke-width:0.567455"
       transform="matrix(1.541293,0,0,2.0148899,3.1807555,-16.775635)" />
  </g>
</svg>
