<?xml version="1.0" encoding="UTF-8" standalone="no"?>
<svg
   width="24"
   height="24"
   version="1.1"
   id="svg18"
   xmlns="http://www.w3.org/2000/svg"
   xmlns:svg="http://www.w3.org/2000/svg">
  <defs
     id="defs22" />
  <path
     id="rect19321"
     style="font-variation-settings:normal;fill:#2e3436;fill-opacity:1;stroke:none;stroke-width:3;stroke-linecap:round;stroke-linejoin:miter;stroke-miterlimit:4;stroke-dasharray:none;stroke-dashoffset:0;stroke-opacity:1;stop-color:#000000"
     d="M 2.5 1 C 1.6690016 1 1 1.6690018 1 2.5 L 1 10 L 8.5 10 C 9.3309982 10 10 9.3309982 10 8.5 C 10 7.6690018 9.3309982 7 8.5 7 L 6.2910156 7 L 7.5605469 5.8476562 A 1.5 1.5 0 0 0 7.6210938 5.7890625 A 1.5 1.5 0 0 0 7.6699219 5.7617188 C 10.428511 3.4387711 14.421302 3.4006831 17.222656 5.671875 C 20.024011 7.9430672 20.813671 11.859765 19.111328 15.039062 C 17.408985 18.218359 13.712752 19.7326 10.269531 18.660156 A 1.5 1.5 0 0 0 8.390625 19.644531 A 1.5 1.5 0 0 0 9.3769531 21.523438 C 14.175828 23.018121 19.383275 20.886119 21.755859 16.455078 C 24.128445 12.024038 23.017577 6.5071964 19.113281 3.3417969 C 17.161133 1.7590971 14.77769 0.98179503 12.402344 1.0039062 C 10.026997 1.0260175 7.6586749 1.8480308 5.7363281 3.4667969 A 1.5 1.5 0 0 0 5.7050781 3.5058594 A 1.5 1.5 0 0 0 5.5449219 3.625 L 4 5.0273438 L 4 2.5 C 4 1.6690018 3.3309984 1 2.5 1 z " />
</svg>
