<?xml version="1.0" encoding="UTF-8"?>
<svg width="16" height="16" version="1.1" xmlns="http://www.w3.org/2000/svg">
 <path d="m8 1a1 1 0 0 0-1 1 1 1 0 0 0 1 1h3c0.57129 0 1 0.42871 1 1v8c0 0.57129-0.42871 1-1 1h-3a1 1 0 0 0-1 1 1 1 0 0 0 1 1h3c1.6447 0 3-1.3553 3-3v-8c0-1.6447-1.3553-3-3-3h-3zm-3 3a1 1 0 0 0-0.70703 0.29297 1 1 0 0 0 0 1.4141l1.291 1.293h-4.584c-0.55228 0-1 0.44772-1 1s0.44772 1 1 1h4.5957l-1.3027 1.3047a1 1 0 0 0 0 1.4141 1 1 0 0 0 1.4141 0l3.7051-3.7129-3.7051-3.7129a1 1 0 0 0-0.70703-0.29297z" fill="#222"/>
</svg>
