<?xml version="1.0" encoding="UTF-8"?>
<svg width="16" height="16" version="1.1" xmlns="http://www.w3.org/2000/svg">
 <path d="m4 1c-1.6447 0-3 1.3553-3 3v8c0 1.6447 1.3553 3 3 3h3a1 1 0 0 0 1-1 1 1 0 0 0-1-1h-3c-0.57129 0-1-0.42871-1-1v-8c0-0.57129 0.42871-1 1-1h3a1 1 0 0 0 1-1 1 1 0 0 0-1-1h-3zm7.0059 3a1 1 0 0 0-0.70703 0.29297 1 1 0 0 0 0 1.4141l1.291 1.293h-5.5898c-0.55228 0-1 0.44772-1 1s0.44772 1 1 1h5.6016l-1.3027 1.3047a1 1 0 0 0 0 1.4141 1 1 0 0 0 1.4141 0l3.7051-3.7129-3.7051-3.7129a1 1 0 0 0-0.70703-0.29297z" fill="#222"/>
</svg>
