<?xml version="1.0" encoding="UTF-8"?>
<svg width="16" height="16" version="1.1" xmlns="http://www.w3.org/2000/svg">
 <path d="m13.049 0.97656c-0.101-0.001918-0.20292 0.002141-0.30469 0.011719h-9.7441c-1.6823-0.042227-3.1444 1.5425-3 3.2129 0.0026 2.6469-0.0051938 5.2927 0.0039062 7.9395 0.04627 1.6435 1.6237 3.0009 3.252 2.8477 3.2994-0.0026 6.5972 0.005194 9.8965-0.003906 1.6436-0.04627 3.0009-1.6237 2.8477-3.252-0.0026-2.6327 0.005194-5.2639-0.003906-7.8965-0.04338-1.5408-1.4323-2.8306-2.9473-2.8594zm-10.049 2.0117c3.3684 0.00331 6.7373-0.0057206 10.105 0.0058594 0.62526 0.030894 0.98213 0.67694 0.89453 1.25-0.0033 2.6167 0.005741 5.2331-0.005859 7.8496-0.03089 0.62526-0.67694 0.98213-1.25 0.89453-3.2833-0.0033-6.5665 0.005741-9.8496-0.005859-0.62519-0.03081-0.98213-0.67694-0.89453-1.25 0.0033-2.6167-0.0057406-5.2331 0.0058594-7.8496 0.03254-0.50501 0.49028-0.91108 0.99414-0.89453zm0.92578 3c-0.76496 0.025743-1.2274 1.0483-0.70117 1.6309 0.44659 0.46323 0.90855 0.91178 1.3613 1.3691-0.48354 0.51731-1.0435 0.97158-1.4707 1.5352-0.41076 0.69447 0.29301 1.6413 1.0762 1.4473 0.5745-0.1569 0.89401-0.71791 1.3281-1.0879l1.8945-1.8945c-0.95715-0.93937-1.8809-1.9168-2.8594-2.832-0.16297-0.10919-0.35851-0.16834-0.55469-0.16797-0.025284-0.0012941-0.049543-8.304e-4 -0.074219 0zm3.0742 5v1h4v-1h-4z" fill="#222"/>
</svg>
