<?xml version="1.0" encoding="UTF-8"?>
<svg width="16" height="16" version="1.1" xmlns="http://www.w3.org/2000/svg">
 <path d="m12 0"/>
 <path d="m3 1c-0.25586 0-0.51172 0.097656-0.70703 0.29297-0.1875 0.1875-0.29297 0.44141-0.29297 0.70703s0.10547 0.51953 0.29297 0.70703l5.293 5.293-5.293 5.293c-0.1875 0.1875-0.29297 0.44141-0.29297 0.70703s0.10547 0.51953 0.29297 0.70703c0.39062 0.39062 1.0234 0.39062 1.4141 0l6-6c0.1875-0.1875 0.29297-0.44141 0.29297-0.70703s-0.10547-0.51953-0.29297-0.70703l-6-6c-0.19531-0.19531-0.45117-0.29297-0.70703-0.29297zm11 0c-0.55078 0-1 0.44922-1 1v12c0 0.55078 0.44922 1 1 1s1-0.44922 1-1v-12c0-0.55078-0.44922-1-1-1z" fill="#222"/>
</svg>
