<?xml version="1.0" encoding="UTF-8" standalone="no"?>
<svg
   height="16px"
   viewBox="0 0 16 16"
   width="16px"
   version="1.1"
   id="svg1"
   sodipodi:docname="go-last-symbolic.svg"
   inkscape:version="1.4.2 (ebf0e940d0, 2025-05-08)"
   xmlns:inkscape="http://www.inkscape.org/namespaces/inkscape"
   xmlns:sodipodi="http://sodipodi.sourceforge.net/DTD/sodipodi-0.dtd"
   xmlns="http://www.w3.org/2000/svg"
   xmlns:svg="http://www.w3.org/2000/svg">
  <defs
     id="defs1" />
  <sodipodi:namedview
     id="namedview1"
     pagecolor="#ffffff"
     bordercolor="#000000"
     borderopacity="0.25"
     inkscape:showpageshadow="2"
     inkscape:pageopacity="0.0"
     inkscape:pagecheckerboard="0"
     inkscape:deskcolor="#d1d1d1"
     showgrid="true"
     inkscape:zoom="18.125"
     inkscape:cx="-10.786207"
     inkscape:cy="2.5931034"
     inkscape:window-width="2560"
     inkscape:window-height="1371"
     inkscape:window-x="0"
     inkscape:window-y="0"
     inkscape:window-maximized="1"
     inkscape:current-layer="svg1">
    <inkscape:grid
       id="grid2"
       units="px"
       originx="0"
       originy="0"
       spacingx="1"
       spacingy="1"
       empcolor="#0099e5"
       empopacity="0.30196078"
       color="#0099e5"
       opacity="0.14901961"
       empspacing="5"
       enabled="true"
       visible="true" />
  </sodipodi:namedview>
  <path
     d="M 12,0"
     id="path2" />
  <path
     d="m 14,1 c -0.550781,0 -1,0.449219 -1,1 v 12 c 0,0.550781 0.449219,1 1,1 0.550781,0 1,-0.449219 1,-1 V 2 C 15,1.449219 14.550781,1 14,1 Z"
     id="path1"
     sodipodi:nodetypes="sssssss"
     style="fill:#000000;fill-opacity:1" />
  <path
     d="m 2,1.9999999 c 0,-0.265625 0.105469,-0.519531 0.292969,-0.707031 0.390625,-0.390625 1.023437,-0.390625 1.414062,0 l 6,6 C 9.894531,7.4804689 10,7.7343749 10,7.9999999 c 0,0.265625 -0.105469,0.519531 -0.292969,0.707031 l -6,6.0000001 c -0.390625,0.390625 -1.023437,0.390625 -1.414062,0 C 2.105469,14.519531 2,14.265625 2,14 2,13.734375 2.105469,13.480469 2.292969,13.292969 L 7.585938,7.9999999 2.292969,2.7070309 C 2.105469,2.5195309 2,2.2656249 2,1.9999999 Z m 0,0"
     fill="#2e3436"
     id="path1-5"
     style="fill:#000000" />
</svg>
