<?xml version="1.0" encoding="UTF-8"?>
<svg width="16" height="16" version="1.1" xmlns="http://www.w3.org/2000/svg">
 <path d="m4.4961 0c-0.83203 0-1.5 0.67188-1.5 1.5s0.66797 1.5 1.5 1.5c0.82812 0 1.5-0.67188 1.5-1.5s-0.67188-1.5-1.5-1.5zm6 0c-0.83203 0-1.5 0.67188-1.5 1.5s0.66797 1.5 1.5 1.5c0.82812 0 1.5-0.67188 1.5-1.5s-0.67188-1.5-1.5-1.5zm-6 6c-0.83203 0-1.5 0.67188-1.5 1.5s0.66797 1.5 1.5 1.5c0.82812 0 1.5-0.67188 1.5-1.5s-0.67188-1.5-1.5-1.5zm6 0c-0.83203 0-1.5 0.67188-1.5 1.5s0.66797 1.5 1.5 1.5c0.82812 0 1.5-0.67188 1.5-1.5s-0.67188-1.5-1.5-1.5zm-6 6c-0.83203 0-1.5 0.67188-1.5 1.5s0.66797 1.5 1.5 1.5c0.82812 0 1.5-0.67188 1.5-1.5s-0.67188-1.5-1.5-1.5zm6 0c-0.83203 0-1.5 0.67188-1.5 1.5s0.66797 1.5 1.5 1.5c0.82812 0 1.5-0.67188 1.5-1.5s-0.67188-1.5-1.5-1.5z" fill="#222"/>
</svg>
