<?xml version="1.0" encoding="UTF-8"?>
<svg width="16" height="16" version="1.1" xmlns="http://www.w3.org/2000/svg">
 <path d="m8 0c-0.82812 0-1.5 0.67188-1.5 1.5 0 0.074219 0.007812 0.14844 0.015625 0.22266-2.0898 0.65234-3.5156 2.5859-3.5156 4.7773v4.5h-0.5c-0.55469 0-1 0.44531-1 1s0.44531 1 1 1h11c0.55469 0 1-0.44531 1-1s-0.44531-1-1-1h-0.50391v-4.4062c0.003906-0.03125 0.003906-0.0625 0.003906-0.09375 0-2.1914-1.4258-4.125-3.5195-4.7734 0.015625-0.078124 0.019531-0.15234 0.019531-0.22656 0-0.82812-0.66797-1.5-1.5-1.5zm0 3.5c1.6562 0 3 1.3438 3 3v4.5h-6v-4.5c0-1.6562 1.3438-3 3-3zm-2 10.5c0 0.71484 0.38281 1.375 1 1.7305 0.61719 0.35938 1.3828 0.35938 2 0 0.61719-0.35547 1-1.0156 1-1.7305z" fill="#222"/>
</svg>
