<?xml version="1.0" encoding="UTF-8"?>
<svg height="16px" viewBox="0 0 16 16" width="16px" xmlns="http://www.w3.org/2000/svg">
    <path d="m 6.429688 0.992188 c -0.113282 0 -0.230469 0.015624 -0.347657 0.039062 c -0.308593 0.070312 -0.601562 0.230469 -0.824219 0.480469 l -2.207031 2.488281 h -0.550781 c -1.367188 0 -2.5 1.132812 -2.5 2.5 v 3 c 0 1.367188 1.132812 2.5 2.5 2.5 h 0.550781 l 2.203125 2.460938 c 0.449219 0.503906 1.179688 0.632812 1.734375 0.421874 c 0.554688 -0.210937 1.011719 -0.792968 1.011719 -1.46875 v -10.859374 c 0 -0.675782 -0.457031 -1.257813 -1.011719 -1.46875 c -0.171875 -0.0625 -0.363281 -0.097657 -0.558593 -0.09375 z m 6.570312 0.007812 c -0.265625 0 -0.519531 0.105469 -0.707031 0.292969 l -3 3 c -0.390625 0.390625 -0.390625 1.023437 0 1.414062 s 1.023437 0.390625 1.414062 0 l 3 -3 c 0.390625 -0.390625 0.390625 -1.023437 0 -1.414062 c -0.1875 -0.1875 -0.441406 -0.292969 -0.707031 -0.292969 z m -7 2.6875 v 8.605469 l -1.753906 -1.960938 c -0.191406 -0.210937 -0.460938 -0.332031 -0.746094 -0.332031 h -1 c -0.289062 0 -0.5 -0.210938 -0.5 -0.5 v -3 c 0 -0.289062 0.210938 -0.5 0.5 -0.5 h 1 c 0.285156 0 0.558594 -0.121094 0.75 -0.335938 z m 5 3.3125 c -0.550781 0 -1 0.449219 -1 1 s 0.449219 1 1 1 h 4 c 0.550781 0 1 -0.449219 1 -1 s -0.449219 -1 -1 -1 z m -1 3 c -0.265625 0 -0.519531 0.105469 -0.707031 0.292969 c -0.390625 0.390625 -0.390625 1.023437 0 1.414062 l 3 3 c 0.390625 0.390625 1.023437 0.390625 1.414062 0 s 0.390625 -1.023437 0 -1.414062 l -3 -3 c -0.1875 -0.1875 -0.441406 -0.292969 -0.707031 -0.292969 z m 0 0"/>
</svg>
