<?xml version="1.0" encoding="UTF-8" standalone="no"?>
<svg
   width="16"
   height="16"
   version="1.1"
   id="svg8"
   sodipodi:docname="appearance-symbolic.svg"
   inkscape:version="1.3.2 (091e20ef0f, 2023-11-25)"
   xml:space="preserve"
   xmlns:inkscape="http://www.inkscape.org/namespaces/inkscape"
   xmlns:sodipodi="http://sodipodi.sourceforge.net/DTD/sodipodi-0.dtd"
   xmlns:xlink="http://www.w3.org/1999/xlink"
   xmlns="http://www.w3.org/2000/svg"
   xmlns:svg="http://www.w3.org/2000/svg"><defs
     id="defs12" /><sodipodi:namedview
     id="namedview10"
     pagecolor="#ffffff"
     bordercolor="#666666"
     borderopacity="1.0"
     inkscape:pageshadow="2"
     inkscape:pageopacity="0.0"
     inkscape:pagecheckerboard="0"
     showgrid="true"
     inkscape:zoom="45.254834"
     inkscape:cx="5.8778251"
     inkscape:cy="16.418136"
     inkscape:window-width="1526"
     inkscape:window-height="1218"
     inkscape:window-x="26"
     inkscape:window-y="23"
     inkscape:window-maximized="0"
     inkscape:current-layer="g6"
     inkscape:showpageshadow="2"
     inkscape:deskcolor="#d1d1d1"><inkscape:grid
       id="grid1"
       units="px"
       originx="0"
       originy="0"
       spacingx="1"
       spacingy="1"
       empcolor="#3f3fff"
       empopacity="0.25098039"
       color="#3f3fff"
       opacity="0.1254902"
       empspacing="5"
       dotted="false"
       gridanglex="30"
       gridanglez="30"
       visible="true" /></sodipodi:namedview><g
     color="#bebebe"
     font-weight="400"
     font-family="Sans"
     fill="#474747"
     id="g6"
     transform="matrix(-1,0,0,1,15.986,0)"><image
       width="14.038637"
       height="14.038637"
       preserveAspectRatio="none"
       style="stroke-width:16.0273;image-rendering:optimizeSpeed"
       xlink:href="../../../../../gnome-pomodoro-notes/icons/appearance/images%20(11).png"
       id="image1-3"
       x="-55.05439"
       y="0.9653843"
       transform="scale(-1,1)" /><path
       style="fill:none;fill-rule:evenodd;stroke:#474747;stroke-width:1.2;stroke-linecap:butt;stroke-linejoin:miter;stroke-dasharray:none;stroke-opacity:1"
       d="M -31.362792,9.6201912 C -32.57796,7.3069791 -34.362466,5.440716 -35.85737,4.031395 c -1.552297,-1.4634277 -3.317656,-2.5207807 -4.830304,-2.6904644 0.09262,1.462823 1.08365,3.5785287 2.601945,5.1406927 1.174243,1.2081712 2.92856,2.9772359 4.729292,4.3846727"
       id="path12"
       sodipodi:nodetypes="cscsc" /><path
       id="path13"
       style="fill:none;fill-opacity:0.994327;stroke:#474747;stroke-width:1.2;stroke-linecap:round;stroke-linejoin:round;stroke-dasharray:none;stroke-dashoffset:4.2;stroke-opacity:1"
       d="m -26.657215,15.393286 c -1.423221,-0.0014 -1.839369,0.08103 -3.50724,0.07083 -2.025648,0 -3.345669,-1.382461 -3.32915,-2.872888 0.01652,-1.490427 1.429194,-3.0357005 3.021152,-3.035784 1.782815,-0.017356 2.820157,1.28042 2.885929,2.702704 0.06577,1.422285 0.368117,2.071585 0.929309,3.13514 z"
       sodipodi:nodetypes="cczczc" /><path
       style="fill:none;fill-rule:evenodd;stroke:#474747;stroke-width:1.1;stroke-linecap:butt;stroke-linejoin:miter;stroke-dasharray:none;stroke-opacity:1"
       d="m -33.019767,6.8855405 c -1.476781,0.7459088 -2.263489,2.0414809 -2.652377,2.6174758"
       id="path14"
       sodipodi:nodetypes="cc" /><path
       style="color:#bebebe;fill:#474747;fill-rule:evenodd;-inkscape-stroke:none"
       d="m -19.433499,0.52254248 -0.0543,0.85138102 c 0.114745,1.8122595 1.092391,4.0224107 2.757326,5.7354515 1.18046,1.2145672 2.954736,3.008678 4.820313,4.466797 l 1.107422,-1.419922 c -1.735884,-1.3567521 -3.468695,-3.1009616 -4.636719,-4.3027344 -0.89957,-0.9255616 -1.481985,-2.0448845 -1.876953,-3.0742187 0.924819,0.4261165 1.904526,1.022638 2.841797,1.90625 1.466464,1.3825099 3.175306,3.1850183 4.314453,5.3535161 l 1.59375,-0.8378911 C -9.857593,6.7432496 -11.716894,4.8130824 -13.240234,3.3769531 -14.882905,1.8283256 -16.617982,0.75261661 -18.465148,0.54540777 Z"
       id="path15"
       sodipodi:nodetypes="ccsccscsccscc" /><path
       style="color:#bebebe;fill:#474747;stroke-linecap:round;stroke-linejoin:round;stroke-dashoffset:4.2;-inkscape-stroke:none"
       d="m -8.652344,8.9726563 c -1.704195,0.034597 -3.35924,1.3968627 -3.398437,3.3906247 -0.01837,0.934551 0.251424,1.859986 0.880859,2.556641 0.629435,0.696654 1.599035,1.095626 2.691406,1.08789 0.807805,0.0048 2.295856,0.0015 4.471399,-0.0086 -0.518458,-0.981243 -0.632804,-1.354167 -1.014367,-3.899549 -0.271761,-1.812901 -1.792372,-3.1174793 -3.605469,-3.1269527 -0.0085,-1.074e-4 -0.01693,-1.074e-4 -0.02539,0 z m 0.0293,2.0039067 c 0.933264,0.01095 1.504919,0.525406 1.611328,1.316406 0.08606,0.639764 0.208805,1.174141 0.316468,1.71289 -0.512128,0.0031 -0.889325,0.0074 -1.783265,0.002 -0.0046,-3.1e-5 -0.0091,-3.1e-5 -0.01367,0 -0.638849,0.0045 -0.967092,-0.175142 -1.195313,-0.427735 -0.228221,-0.252593 -0.37568,-0.646417 -0.365234,-1.177734 0.01833,-0.932459 0.715032,-1.405857 1.429687,-1.425781 z"
       id="path16"
       sodipodi:nodetypes="cssccsccccscccsscc" /><path
       style="color:#bebebe;fill:#474747;fill-rule:evenodd;-inkscape-stroke:none"
       d="m -11.474895,5.9593751 c -1.73631,0.8769944 -2.638537,2.3941646 -2.992188,2.9179688 l 1.492187,1.005859 c 0.424125,-0.6281841 1.095251,-1.7015841 2.312501,-2.3164059 z"
       id="path17" /><path
       style="fill:none;fill-rule:evenodd;stroke:#474747;stroke-width:1.8;stroke-linecap:butt;stroke-linejoin:miter;stroke-dasharray:none;stroke-opacity:1"
       d="M 30.949464,9.7243172 C 29.734296,7.549899 27.637534,5.440716 26.14263,4.031395 24.590333,2.5679673 23.310814,1.8228702 21.659372,1.7919804 c -0.0163,1.5717451 0.659133,3.2397401 2.185563,4.7937689 1.180607,1.201953 3.1019,3.1505757 4.833296,4.4540087"
       id="path18"
       sodipodi:nodetypes="cscsc" /><path
       id="path19"
       style="fill:none;fill-opacity:0.994327;stroke:#474747;stroke-width:1.8;stroke-linecap:round;stroke-linejoin:round;stroke-dasharray:none;stroke-dashoffset:4.2;stroke-opacity:1"
       d="m 34.978436,15.002936 c -1.423221,-0.0014 -1.795973,0.01525 -3.463844,0.0051 -1.731222,0.01226 -2.595333,-1.159432 -2.566514,-2.625302 0.02882,-1.46587 1.208309,-2.385563 2.419956,-2.4101605 1.377989,0.0072 2.488918,0.9124075 2.616059,2.2242935 0.127142,1.311886 0.433151,1.742563 0.994343,2.806118 z"
       sodipodi:nodetypes="cczczcc" /><path
       style="fill:none;fill-rule:evenodd;stroke:#474747;stroke-width:1.8;stroke-linecap:butt;stroke-linejoin:miter;stroke-dasharray:none;stroke-opacity:1"
       d="M 28.910897,6.6774106 C 27.434116,7.4233194 26.647408,8.7188915 26.25852,9.2948864"
       id="path20"
       sodipodi:nodetypes="cc" /><path
       style="color:#bebebe;fill:#474747;fill-rule:evenodd;-inkscape-stroke:none"
       d="M 0.87365723,0.94433594 0.86389123,1.852539 C 0.84484961,3.6886837 1.648226,5.5971116 3.307251,7.2861328 4.4891523,8.4894035 6.4207017,10.456905 8.2408448,11.827149 l 1.0820312,-1.4375 C 7.6802305,9.1530287 5.7697644,7.2250469 4.5904541,6.024414 3.6033088,5.0194205 3.1580272,4.0253795 2.9185791,3.0576172 3.7750721,3.325821 4.6019515,3.786146 5.6295166,4.7548828 7.1039381,6.1448939 9.1471917,8.22749 10.268189,10.233399 L 11.838501,9.3544922 C 10.529164,7.0115685 8.3792752,4.8749171 6.8638916,3.446289 5.2429265,1.9181244 3.6932224,0.99770213 1.7799072,0.96191407 Z"
       id="path21" /><path
       style="color:#bebebe;fill:#474747;stroke-linecap:round;stroke-linejoin:round;stroke-dashoffset:4.2;-inkscape-stroke:none"
       d="m 11.349609,9.1416015 c -1.6549399,0.033597 -3.26262,1.3519965 -3.3007809,3.2929685 -0.017977,0.91439 0.2460946,1.81383 0.8554688,2.488282 0.6093741,0.674451 1.5474921,1.062262 2.6171871,1.054687 1.477829,0.0059 2.967109,-0.04043 4.416823,-0.01431 -0.351837,-0.845552 -0.814434,-1.783831 -1.057448,-3.784521 -0.171862,-1.773336 -1.738226,-3.0278634 -3.507812,-3.0371095 -0.0078,-1.017e-4 -0.01563,-1.017e-4 -0.02344,0 z M 11.375,10.946289 c 0.978342,0.01048 1.630874,0.559977 1.712891,1.40625 0.07439,0.767601 0.186642,1.342265 0.34717,1.846823 -0.555209,0.0034 -0.94853,-0.01676 -1.91553,-0.02256 -0.0039,-2.5e-5 -0.0078,-2.5e-5 -0.01172,0 -0.661526,0.0047 -1.03355,-0.25977 -1.281832,-0.534566 C 9.9776999,13.367396 9.8368142,13.021206 9.8476563,12.469727 9.8670284,11.484402 10.611084,10.967328 11.375,10.946289 Z"
       id="path22"
       sodipodi:nodetypes="csscccccccscsccsc" /><path
       style="color:#bebebe;fill:#474747;fill-rule:evenodd;-inkscape-stroke:none"
       d="M 8.5058594,5.875 C 6.7695497,6.7519944 5.8653697,8.2672114 5.5117187,8.7910156 L 7.0039062,9.7988281 C 7.4280305,9.1706437 8.0991568,8.0952905 9.3164063,7.4804687 Z"
       id="path23" /></g></svg>
