<?xml version="1.0" encoding="UTF-8"?>
<svg width="16" height="16" version="1.1" xmlns="http://www.w3.org/2000/svg">
 <path d="m6.4297 0.99219c-0.11328 0-0.23047 0.015624-0.34766 0.039062-0.30859 0.070312-0.60156 0.23047-0.82422 0.48047l-2.207 2.4883h-0.55078c-1.3672 0-2.5 1.1328-2.5 2.5v3c0 1.3672 1.1328 2.5 2.5 2.5h0.55078l2.2031 2.4609c0.44922 0.50391 1.1797 0.63281 1.7344 0.42187 0.55469-0.21094 1.0117-0.79297 1.0117-1.4688v-10.859c0-0.67578-0.45703-1.2578-1.0117-1.4688-0.17188-0.0625-0.36328-0.097657-0.55859-0.09375zm6.5703 0.007812c-0.26562 0-0.51953 0.10547-0.70703 0.29297l-3 3c-0.39062 0.39062-0.39062 1.0234 0 1.4141s1.0234 0.39062 1.4141 0l3-3c0.39062-0.39062 0.39062-1.0234 0-1.4141-0.1875-0.1875-0.44141-0.29297-0.70703-0.29297zm-7 2.6875v8.6055l-1.7539-1.9609c-0.19141-0.21094-0.46094-0.33203-0.74609-0.33203h-1c-0.28906 0-0.5-0.21094-0.5-0.5v-3c0-0.28906 0.21094-0.5 0.5-0.5h1c0.28516 0 0.55859-0.12109 0.75-0.33594zm5 3.3125c-0.55078 0-1 0.44922-1 1s0.44922 1 1 1h4c0.55078 0 1-0.44922 1-1s-0.44922-1-1-1zm-1 3c-0.26562 0-0.51953 0.10547-0.70703 0.29297-0.39062 0.39062-0.39062 1.0234 0 1.4141l3 3c0.39062 0.39062 1.0234 0.39062 1.4141 0s0.39062-1.0234 0-1.4141l-3-3c-0.1875-0.1875-0.44141-0.29297-0.70703-0.29297z" fill="#222"/>
</svg>
