<?xml version="1.0" encoding="UTF-8"?>
<svg width="16" height="16" version="1.1" xmlns="http://www.w3.org/2000/svg">
 <path d="m15.113 0.94531-0.90625 0.017578c-1.9133 0.035788-3.463 0.95426-5.084 2.4824-1.4734 1.389-3.548 3.4483-4.8652 5.7148-1.6197 0.16211-2.9921 1.3638-3.1523 3.0176-0.24301 2.0007-0.70676 2.9396-1.0586 3.7852 1.4497-0.02612 2.9401 0.01957 4.418 0.01367 1.0697 0.0076 2.0078-0.37828 2.6172-1.0527 0.60937-0.67445 0.87345-1.5758 0.85547-2.4902-0.00472-0.23991-0.034186-0.46982-0.083984-0.68945 1.7879-1.3657 3.6678-3.2797 4.8262-4.459 1.659-1.689 2.4624-3.5974 2.4434-5.4336l-0.0098-0.90625zm-2.0449 2.1133c-0.23945 0.96776-0.68473 1.9599-1.6719 2.9648-0.46895 0.47743-1.054 1.0712-1.6914 1.6895-0.3018-0.37104-0.68413-0.77906-1.1582-1.1543 0.63082-0.67121 1.2606-1.2863 1.8105-1.8047 1.0276-0.96874 1.8544-1.4271 2.7109-1.6953zm-5.7168 4.8496c0.42232 0.3214 0.75966 0.69199 1.0332 1.043-0.47215 0.42593-0.95027 0.83538-1.4121 1.1992-0.24597-0.2468-0.52762-0.45247-0.83203-0.61328 0.35807-0.54856 0.77168-1.0977 1.2109-1.6289zm-2.7402 3.0371c0.76392 0.02104 1.508 0.54007 1.5273 1.5254 0.010842 0.55148-0.13063 0.89704-0.37891 1.1719-0.24828 0.2748-0.61972 0.53986-1.2812 0.53516-0.0039-2.5e-5 -0.0078-2.5e-5 -0.01172 0-0.967 0.0058-1.3608 0.02488-1.916 0.02149 0.16053-0.50456 0.27327-1.0801 0.34766-1.8477 0.08202-0.84627 0.73455-1.3958 1.7129-1.4062z" fill="#222"/>
</svg>
