<?xml version="1.0" encoding="UTF-8" standalone="no"?>
<svg
   height="16px"
   viewBox="0 0 16 16"
   width="16px"
   version="1.1"
   id="svg2"
   sodipodi:docname="screen-overlay-open-symbolic.svg"
   inkscape:version="1.3 (0e150ed6c4, 2023-07-21)"
   xmlns:inkscape="http://www.inkscape.org/namespaces/inkscape"
   xmlns:sodipodi="http://sodipodi.sourceforge.net/DTD/sodipodi-0.dtd"
   xmlns="http://www.w3.org/2000/svg"
   xmlns:svg="http://www.w3.org/2000/svg">
  <defs
     id="defs2" />
  <sodipodi:namedview
     id="namedview2"
     pagecolor="#ffffff"
     bordercolor="#666666"
     borderopacity="1.0"
     inkscape:showpageshadow="2"
     inkscape:pageopacity="0.0"
     inkscape:pagecheckerboard="0"
     inkscape:deskcolor="#d1d1d1"
     inkscape:zoom="63.999997"
     inkscape:cx="6.1171878"
     inkscape:cy="8.5078129"
     inkscape:window-width="2560"
     inkscape:window-height="1371"
     inkscape:window-x="0"
     inkscape:window-y="32"
     inkscape:window-maximized="1"
     inkscape:current-layer="svg2"
     showgrid="true">
    <inkscape:grid
       id="grid1"
       units="px"
       originx="0"
       originy="0"
       spacingx="1"
       spacingy="1"
       empcolor="#3f3fff"
       empopacity="0.25098039"
       color="#3f3fff"
       opacity="0.1254902"
       empspacing="5"
       dotted="false"
       gridanglex="30"
       gridanglez="30"
       visible="true" />
  </sodipodi:namedview>
  <path
     id="path4"
     style="fill:#2e3436"
     d="M 4,1 C 3.8972173,1 3.7955762,1.005295 3.6953125,1.015625 3.5950478,1.025955 3.4956612,1.0404069 3.3984375,1.0605469 3.2039881,1.1008266 3.017058,1.1618965 2.8378906,1.2382812 1.9420502,1.6202072 1.2619243,2.4261895 1.0605469,3.3984375 1.0404069,3.4956572 1.025955,3.5950488 1.015625,3.6953125 1.005294,3.7955742 1,3.8972173 1,4 v 8 c 0,0.102783 0.0053,0.204424 0.015625,0.304688 0.01033,0.100262 0.024782,0.199653 0.044922,0.296874 0.2416531,1.166695 1.1711951,2.096237 2.3378906,2.337891 0.09722,0.02014 0.1966103,0.03459 0.296875,0.04492 C 3.7955732,14.994705 3.8972173,15 4,15 h 8 c 1.644523,0 3,-1.355476 3,-3 v -2 h -2 v 2 c 0,0.570308 -0.429692,1 -1,1 H 4 c -0.07129,0 -0.1407015,-0.0067 -0.2070312,-0.01953 -0.06633,-0.01286 -0.1292122,-0.03204 -0.1894532,-0.05664 -0.06024,-0.0246 -0.1168981,-0.05464 -0.1699218,-0.08984 -0.05302,-0.0352 -0.1018067,-0.07642 -0.1464844,-0.121093 -0.04468,-0.04468 -0.085891,-0.09346 -0.1210938,-0.146485 -0.0352,-0.05302 -0.065254,-0.10968 -0.089844,-0.169922 -0.0246,-0.06024 -0.043781,-0.123123 -0.056641,-0.189453 C 3.0066635,12.140691 3,12.071289 3,12 V 4 c 0,-0.07129 0.0067,-0.1407015 0.019531,-0.2070312 0.01286,-0.06633 0.032041,-0.1292122 0.056641,-0.1894532 0.0246,-0.06024 0.054644,-0.1168981 0.089844,-0.1699218 0.0352,-0.05302 0.07642,-0.1018067 0.1210938,-0.1464844 0.04468,-0.04468 0.09346,-0.085891 0.1464844,-0.1210938 0.05302,-0.0352 0.1096801,-0.065254 0.1699218,-0.089844 0.06024,-0.0246 0.1231232,-0.043781 0.1894532,-0.056641 C 3.8593045,3.0066615 3.9287113,3 4,3 H 6 V 1 Z"
     sodipodi:nodetypes="ssscccsssccssssccssscsscsccsscsccsccsccs" />
  <g
     id="g1262"
     transform="rotate(180,16,6.999999)">
    <path
       d="m 24,12 c 0,-0.550781 -0.449219,-1 -1,-1 H 19 V 7 C 19,6.449219 18.550781,6 18,6 17.449219,6 17,6.449219 17,7 v 5 c 0,0.550781 0.449219,1 1,1 h 5 c 0.550781,0 1,-0.449219 1,-1 z m 0,0"
       id="path1138"
       style="fill:#2e3436" />
    <path
       id="path1140"
       style="fill:#2e3436"
       d="M 10,9.5859375 V 11 H 8.5859375 l 4.7070315,4.707031 C 13.480469,15.894531 13.734375,16 14,16 c 0.265625,0 0.519531,-0.105469 0.707031,-0.292969 0.390625,-0.390625 0.390625,-1.023437 0,-1.414062 z"
       transform="rotate(-90,14.5,6.5)" />
    <path
       d="m 17,12 h 1 v 1 h -1 z m 0,0"
       id="path1142"
       style="fill:#2e3436" />
    <path
       d="m 17,6 h 1 v 1 h -1 z m 0,0"
       id="path1144"
       style="fill:#2e3436" />
    <path
       d="m 23,12 h 1 v 1 h -1 z m 0,0"
       id="path1146"
       style="fill:#2e3436" />
  </g>
</svg>
