<?xml version="1.0" encoding="UTF-8"?>
<svg width="16" height="16" version="1.1" xmlns="http://www.w3.org/2000/svg">
 <path d="m4 1c-0.10278 0-0.20442 0.005295-0.30469 0.015625-0.10026 0.01033-0.19965 0.024782-0.29688 0.044922-0.19445 0.04028-0.38138 0.10135-0.56055 0.17773-0.89584 0.38193-1.576 1.1879-1.7773 2.1602-0.02014 0.09722-0.034592 0.19661-0.044922 0.29688-0.010331 0.10026-0.015625 0.2019-0.015625 0.30469v8c0 0.10278 0.0053 0.20442 0.015625 0.30469 0.01033 0.10026 0.024782 0.19965 0.044922 0.29687 0.24165 1.1667 1.1712 2.0962 2.3379 2.3379 0.09722 0.02014 0.19661 0.034592 0.29688 0.044922 0.10026 0.010332 0.2019 0.015625 0.30469 0.015625h8c1.6445 0 3-1.3555 3-3v-2h-2v2c0 0.57031-0.42969 1-1 1h-8c-0.07129 0-0.1407-0.006701-0.20703-0.019531-0.06633-0.01286-0.12921-0.032041-0.18945-0.056641-0.06024-0.0246-0.1169-0.054644-0.16992-0.089844-0.05302-0.0352-0.10181-0.07642-0.14648-0.12109-0.04468-0.04468-0.085891-0.09346-0.12109-0.14648-0.0352-0.05302-0.065254-0.10968-0.089844-0.16992-0.0246-0.06024-0.043781-0.12312-0.056641-0.18945-0.012867-0.066346-0.019531-0.13574-0.019531-0.20703v-8c0-0.07129 0.0067003-0.1407 0.019531-0.20703 0.01286-0.06633 0.032041-0.12921 0.056641-0.18945 0.0246-0.06024 0.054644-0.1169 0.089844-0.16992 0.0352-0.05302 0.07642-0.10181 0.12109-0.14648 0.04468-0.04468 0.09346-0.085891 0.14648-0.12109 0.05302-0.0352 0.10968-0.065254 0.16992-0.089844 0.06024-0.0246 0.12312-0.043781 0.18945-0.056641 0.066335-0.012869 0.13574-0.019531 0.20703-0.019531h2v-2h-2zm4 0v1c0 0.55078 0.44922 1 1 1h2.5859l-3.293 3.293c-0.1875 0.1875-0.29297 0.44141-0.29297 0.70703s0.10547 0.51953 0.29297 0.70703c0.39062 0.39062 1.0234 0.39063 1.4141 0l3.293-3.293v2.5859c0 0.55078 0.44922 1 1 1h1v-7h-7z" fill="#222"/>
</svg>
