<?xml version="1.0" encoding="UTF-8"?>
<svg width="16" height="16" version="1.1" xmlns="http://www.w3.org/2000/svg">
 <path d="m2.75 1.5a1.25 1.25 0 0 0-0.88477 0.36523 1.25 1.25 0 0 0 0 1.7695l4.3652 4.3652-4.3652 4.3652a1.25 1.25 0 0 0 0 1.7695 1.25 1.25 0 0 0 1.7695 0l4.3652-4.3652 4.3652 4.3652a1.25 1.25 0 0 0 1.7695 0 1.25 1.25 0 0 0 0-1.7695l-4.3652-4.3652 4.3652-4.3652a1.25 1.25 0 0 0 0-1.7695 1.25 1.25 0 0 0-0.88477-0.36523 1.25 1.25 0 0 0-0.88477 0.36523l-4.3652 4.3652-4.3652-4.3652a1.25 1.25 0 0 0-0.88477-0.36523z" fill="#222"/>
</svg>
