<?xml version="1.0" encoding="UTF-8"?>
<svg width="16" height="16" version="1.1" xmlns="http://www.w3.org/2000/svg">
 <path d="m5.5371 0.50195c-0.14506 0.0014461-0.28181 0.1316-0.24414 0.30469 0.20921 0.94431-0.0082538 1.4259-0.31445 1.8496s-0.76235 0.76741-0.9043 1.3574c-0.28181 1.1713 0.45246 2.1356 1.4258 2.498 0.20656 0.076751 0.4042-0.13187 0.31641-0.33398-0.24083-0.54893-0.34101-0.92364-0.31445-1.252 0.026557-0.32831 0.17799-0.64945 0.52344-1.1016 0.52536-0.68757 0.70946-1.2612 0.60156-1.791-0.1079-0.5298-0.46803-0.95635-0.90234-1.4453-0.053326-0.06033-0.12156-0.086595-0.1875-0.085938zm3.0918 0c-0.14506 0.0014461-0.28181 0.1316-0.24414 0.30469 0.20921 0.94431-0.0082537 1.4259-0.31445 1.8496-0.3062 0.42368-0.76039 0.76741-0.90234 1.3574-0.28181 1.1713 0.45051 2.1356 1.4238 2.498 0.20656 0.076751 0.4042-0.13187 0.31641-0.33398-0.24083-0.54893-0.34101-0.92364-0.31445-1.252 0.026557-0.32831 0.17799-0.64945 0.52344-1.1016 0.52536-0.68757 0.70946-1.2612 0.60156-1.791-0.1079-0.5298-0.46803-0.95635-0.90234-1.4453-0.053326-0.06033-0.12156-0.086595-0.1875-0.085938zm-6.75 6.502c-0.47644 0-0.85938 0.47098-0.85938 1.0547-0.14486 3.0934 0.50025 4.9633 2.4688 6.9375h6.0391c0.79941-0.62149 1.3398-1.3471 1.7031-2.1582 0.54432-0.06892 1.1223-0.20004 1.6719-0.41992 0.87245-0.34905 1.7409-0.97263 2.0117-2.0098 0.20781-0.79584 0.085057-1.7499-0.63476-2.3242-0.35991-0.28717-0.80775-0.44037-1.3281-0.46484-0.32008-0.015051-0.6681 0.01772-1.041 0.097656-0.1151-0.41553-0.43541-0.71289-0.81445-0.71289zm10.846 2.1152c0.34265-0.010762 0.53371 0.068551 0.61914 0.13672 0.14996 0.11965 0.22628 0.36315 0.11914 0.77344-0.10743 0.41142-0.48917 0.74484-1.1172 0.99609-0.19332 0.07734-0.40283 0.14269-0.61914 0.19531 0.11931-0.62255 0.17874-1.2795 0.20703-1.9629 0.32537-0.093536 0.58542-0.13221 0.79102-0.13867z" fill="#222"/>
</svg>
