<?xml version="1.0" encoding="UTF-8"?>
<svg width="16" height="16" version="1.1" xmlns="http://www.w3.org/2000/svg">
 <path d="m7.8789 0.0039062a1.7824 1.7824 0 0 0-1.6621 1.7793 1.7832 1.7832 0 0 0 3.5664 0 1.7824 1.7824 0 0 0-1.9043-1.7793zm3.3281 1.9355a1.0004 1.0001 0 0 0-0.54688 1.8613c2.3474 1.4778 3.0583 4.538 1.5801 6.8848-1.4782 2.3467-4.5647 3.0579-6.9121 1.5801-1.8574-1.1693-2.7361-3.3975-2.1699-5.5176a1.0004 1.0001 0 1 0-1.9297-0.50977c-0.1975 0.73962-0.25975 1.4869-0.21484 2.2227 0.13472 2.2073 1.3256 4.2684 3.2695 5.4922 3.2623 2.0538 7.5902 1.0641 9.6445-2.1973 2.0544-3.2614 1.065-7.5888-2.1973-9.6426a1.0004 1.0001 0 0 0-0.52344-0.17383zm-7.332 0.99609c-0.25593 8.886e-4 -0.52199 0.087481-0.7168 0.2832-0.38962 0.39142-0.38943 1.0166 0.0019531 1.4062l3.7793 4.459c0.58713 0.58444 1.2749 0.37228 1.8594-0.21484 0.58443-0.58714 0.84884-1.3316 0.26172-1.916l-4.4648-3.7383c-0.19571-0.19481-0.46478-0.27989-0.7207-0.2793z" fill="#222"/>
</svg>
