<?xml version="1.0" encoding="UTF-8" standalone="no"?>
<svg
   width="16"
   height="16"
   version="1.1"
   id="svg18"
   sodipodi:docname="timer-rewind-symbolic.svg"
   inkscape:version="1.1 (c68e22c387, 2021-05-23)"
   xmlns:inkscape="http://www.inkscape.org/namespaces/inkscape"
   xmlns:sodipodi="http://sodipodi.sourceforge.net/DTD/sodipodi-0.dtd"
   xmlns="http://www.w3.org/2000/svg"
   xmlns:svg="http://www.w3.org/2000/svg">
  <defs
     id="defs22" />
  <sodipodi:namedview
     id="namedview20"
     pagecolor="#ffffff"
     bordercolor="#666666"
     borderopacity="1.0"
     inkscape:pageshadow="2"
     inkscape:pageopacity="0.0"
     inkscape:pagecheckerboard="0"
     showgrid="true"
     inkscape:zoom="27.28125"
     inkscape:cx="3.9404354"
     inkscape:cy="13.287515"
     inkscape:window-width="2560"
     inkscape:window-height="1371"
     inkscape:window-x="0"
     inkscape:window-y="32"
     inkscape:window-maximized="1"
     inkscape:current-layer="svg18">
    <inkscape:grid
       type="xygrid"
       id="grid843" />
  </sodipodi:namedview>
  <path
     id="path92742"
     style="fill:#474747;fill-opacity:1;stroke-width:0.999999"
     d="M 8.6425781 0 C 8.2712821 -0.0071375183 7.8970675 0.013053554 7.5214844 0.0625 C 5.1915186 0.36924582 3.1850037 1.7476554 2.0332031 3.7148438 L 2.0273438 3.7109375 L 2.015625 3.6992188 L 2 3.6875 L 2 2 C 2 1.4492472 1.5507528 1 1 1 L 0 1 L 0 7 L 6 7 L 6 6 C 6 5.4492095 5.55079 5 5 5 L 3.6035156 5 C 4.4143756 3.408421 5.9605971 2.2865683 7.78125 2.046875 C 9.989605 1.7561393 12.149966 2.8210047 13.263672 4.75 C 14.377378 6.6789957 14.219243 9.0805309 12.863281 10.847656 C 11.507318 12.61478 9.229641 13.388997 7.078125 12.8125 A 1 1 0 0 0 5.8535156 13.519531 A 1 1 0 0 0 6.5605469 14.744141 C 9.4878739 15.528516 12.604312 14.470736 14.449219 12.066406 C 14.910446 11.465323 15.271385 10.806397 15.527344 10.119141 C 16.295225 8.057374 16.132566 5.7184271 14.996094 3.75 C 13.67021 1.4535016 11.24165 0.049962628 8.6425781 0 z " />
  <path
     style="opacity:1;fill:none;stroke:#a40000;stroke-width:2;stroke-linecap:round;stroke-miterlimit:4;stroke-dasharray:none;stroke-opacity:1"
     sodipodi:type="arc"
     sodipodi:cx="-0.13251093"
     sodipodi:cy="-29.469948"
     sodipodi:rx="6.5"
     sodipodi:ry="6.5"
     sodipodi:start="1.5707963"
     sodipodi:end="0"
     sodipodi:open="true"
     sodipodi:arc-type="arc"
     d="m -0.13251093,-22.969948 a 6.5,6.5 0 0 1 -6.00521687,-4.012557 6.5,6.5 0 0 1 1.4090227,-7.083637 6.5,6.5 0 0 1 7.0836364,-1.409023 6.5,6.5 0 0 1 4.0125578,6.005217"
     transform="rotate(105)"
     id="path4957" />
</svg>
