<?xml version="1.0" encoding="UTF-8"?>
<svg width="16" height="16" version="1.1" xmlns="http://www.w3.org/2000/svg">
 <path d="m2.0859 2s-1.0859 0-1.0859 1v10c0 1 1.0859 1 1.0859 1h0.11328c0.21094 0 0.41797-0.046869 0.60156-0.14844l8.3984-4.8008c0.375-0.20703 0.5625-0.62891 0.5625-1.0508s-0.1875-0.84375-0.5625-1.0508l-8.3984-4.8008c-0.18359-0.10156-0.39063-0.14844-0.60156-0.14844h-0.11328zm11.414 0c-0.27734 0-0.5 0.22266-0.5 0.5v11c0 0.27734 0.22266 0.5 0.5 0.5h1c0.27734 0 0.5-0.22266 0.5-0.5v-11c0-0.27734-0.22266-0.5-0.5-0.5h-1z" fill="#222"/>
</svg>
