<?xml version="1.0" encoding="UTF-8"?>
<svg width="16" height="16" version="1.1" xmlns="http://www.w3.org/2000/svg">
 <path d="m8.6426 0c-0.3713-0.0071375-0.74551 0.013054-1.1211 0.0625-2.33 0.30675-4.3365 1.6852-5.4883 3.6523l-0.0058593-0.0039063-0.011719-0.011719-0.015625-0.011719v-1.6875c0-0.55075-0.44925-1-1-1h-1v6h6v-1c0-0.55079-0.44921-1-1-1h-1.3965c0.81086-1.5916 2.3571-2.7134 4.1777-2.9531 2.2084-0.29074 4.3687 0.77413 5.4824 2.7031 1.1137 1.929 0.95557 4.3305-0.40039 6.0977-1.356 1.7671-3.6336 2.5413-5.7852 1.9648a1 1 0 0 0-1.2246 0.70703 1 1 0 0 0 0.70703 1.2246c2.9273 0.78438 6.0438-0.2734 7.8887-2.6777 0.46123-0.60108 0.82217-1.26 1.0781-1.9473 0.76788-2.0618 0.60522-4.4007-0.53125-6.3691-1.3259-2.2965-3.7544-3.7-6.3535-3.75z" fill="#222"/>
</svg>
