<?xml version="1.0" encoding="UTF-8"?>
<svg width="16" height="16" version="1.1" xmlns="http://www.w3.org/2000/svg">
 <path d="m3 2c-0.26562 0-0.51953 0.10547-0.70703 0.29297-0.39062 0.39062-0.39062 1.0234 0 1.4141l4.293 4.293-4.293 4.293c-0.39062 0.39062-0.39062 1.0234 0 1.4141s1.0234 0.39062 1.4141 0l4.293-4.293 4.293 4.293c0.39062 0.39062 1.0234 0.39062 1.4141 0s0.39062-1.0234 0-1.4141l-4.293-4.293 4.293-4.293c0.39062-0.39062 0.39062-1.0234 0-1.4141-0.1875-0.1875-0.44141-0.29297-0.70703-0.29297s-0.51953 0.10547-0.70703 0.29297l-4.293 4.293-4.293-4.293c-0.1875-0.1875-0.44141-0.29297-0.70703-0.29297z" fill="#222"/>
</svg>
