<?xml version="1.0" encoding="UTF-8" standalone="no"?>
<svg
   width="16"
   height="16"
   version="1.1"
   id="svg8"
   sodipodi:docname="timer-symbolic-2.svg"
   inkscape:version="1.2.1 (9c6d41e410, 2022-07-14)"
   xmlns:inkscape="http://www.inkscape.org/namespaces/inkscape"
   xmlns:sodipodi="http://sodipodi.sourceforge.net/DTD/sodipodi-0.dtd"
   xmlns="http://www.w3.org/2000/svg"
   xmlns:svg="http://www.w3.org/2000/svg">
  <defs
     id="defs12" />
  <sodipodi:namedview
     id="namedview10"
     pagecolor="#ffffff"
     bordercolor="#666666"
     borderopacity="1.0"
     inkscape:pageshadow="2"
     inkscape:pageopacity="0.0"
     inkscape:pagecheckerboard="0"
     showgrid="false"
     inkscape:zoom="54.5625"
     inkscape:cx="4.9484536"
     inkscape:cy="8.0183276"
     inkscape:window-width="1526"
     inkscape:window-height="1239"
     inkscape:window-x="674"
     inkscape:window-y="197"
     inkscape:window-maximized="0"
     inkscape:current-layer="g6"
     inkscape:showpageshadow="2"
     inkscape:deskcolor="#d1d1d1" />
  <g
     color="#bebebe"
     font-weight="400"
     font-family="Sans"
     fill="#474747"
     id="g6"
     transform="matrix(-1,0,0,1,15.986,0)">
    <g
       id="g3117"
       style="fill:#474747;fill-opacity:1"
       transform="matrix(-1,0,0,1,15.986,4.0956062e-8)">
      <path
         d="m 1.01392,8.4615172 c 0.1347187,2.2073378 1.3248868,4.2672858 3.2687815,5.4910718 3.2622795,2.05378 7.5912245,1.064929 9.6455835,-2.196429 2.054361,-3.2613571 1.065231,-7.5890777 -2.197049,-9.6428572 a 1.0003829,1.0001 0 1 0 -1.071732,1.6875 c 2.347387,1.4778061 3.059028,4.5372058 1.580804,6.8839292 -1.478224,2.346723 -4.5652817,3.058163 -6.9126682,1.580357 C 3.4702798,11.095781 2.5912506,8.8673236 3.1573833,6.7472314 A 1.0003829,1.0001 0 1 0 1.2282664,6.2383029 C 1.0307635,6.9779253 0.96901383,7.7257382 1.01392,8.4615172 Z"
         style="color:#000000;font-style:normal;font-variant:normal;font-weight:normal;font-stretch:normal;font-size:medium;line-height:normal;font-family:Sans;-inkscape-font-specification:Sans;text-indent:0;text-align:start;text-decoration:none;text-decoration-line:none;letter-spacing:normal;word-spacing:normal;text-transform:none;writing-mode:lr-tb;direction:ltr;baseline-shift:baseline;text-anchor:start;display:inline;overflow:visible;visibility:visible;fill:#474747;fill-opacity:1;stroke:none;stroke-width:2.33333;marker:none;enable-background:accumulate"
         id="path11" />
      <path
         d="M 3.8756971,2.9354041 C 3.6197711,2.9362927 3.3524108,3.0225953 3.1576017,3.218317 2.7679835,3.6097404 2.7694224,4.2349435 3.1608159,4.6245615 L 6.9403275,9.0831852 C 7.5274618,9.6676225 8.2135998,9.4560987 8.7980372,8.8689739 9.3824646,8.2818292 9.6475523,7.537738 9.0604276,6.9533007 L 4.595088,3.2150009 C 4.3993762,3.0201917 4.1316106,2.9348226 3.875687,2.935414 Z"
         id="path3823"
         style="fill:#474747;fill-opacity:1;stroke:none" />
      <path
         d="m 9.7824097,1.7824097 a 1.7824097,1.7824097 0 0 1 -3.5648194,0 1.7824097,1.7824097 0 1 1 3.5648194,0 z"
         id="path3023"
         style="fill:#474747;fill-opacity:1;stroke:none" />
    </g>
  </g>
</svg>
