<?xml version="1.0" encoding="UTF-8"?>
<svg width="16" height="16" version="1.1" xmlns="http://www.w3.org/2000/svg">
 <path d="m4.0527 0.91602-0.22461 1.5645c-0.91675 0.12638-1.6396 0.47935-2.168 1.0586-0.52838 0.57925-0.77723 1.2527-0.74414 2.0215 0.042613 0.98999 0.63015 1.7762 1.7617 2.3555 1.1424 0.57925 1.7247 1.094 1.7441 1.5469 0.015413 0.35808-0.14567 0.65816-0.48242 0.90039-0.32636 0.2317-0.77655 0.34766-1.3516 0.34766-0.37973 0-0.73908-0.03056-1.0781-0.09375-0.33905-0.063191-0.72772-0.19232-0.99219-0.28711l-0.42969 1.6855c0.30295 0.12657 0.85523 0.3063 1.1387 0.33789 0.29475 0.04213 0.58315 0.064453 0.86523 0.064453l-0.29492 1.8633h1.4648l0.30664-1.9434c0.94794-0.15798 1.7069-0.5415 2.2773-1.1523 0.57042-0.61084 0.83809-1.327 0.80273-2.1484-0.04216-0.97946-0.64598-1.7637-1.8105-2.3535-1.1542-0.60031-1.7395-1.0916-1.7559-1.4707-0.014053-0.32649 0.12761-0.59914 0.42188-0.82031 0.29381-0.2317 0.71144-0.34766 1.2539-0.34766 0.27123 0 0.55291 0.020372 0.84766 0.0625 0.30559 0.042127 0.62507 0.11734 0.95508 0.22266l0.26562-1.7539c-0.3065-0.06319-0.57399-0.10589-0.80273-0.12695-0.21835-0.031596-0.45837-0.046875-0.71875-0.046875l0.22852-1.4863h-1.4805zm9.8359 3.6758-2.6387 5.7461c-0.011336-0.26897-0.045616-0.57565-0.10352-0.91992-0.047055-0.34428-0.10448-0.67238-0.17188-0.98438l-0.68359-3.4863h-2.1641l1.7207 8.0195h2.1484l3.9043-7.7773-2.0117-0.59766z" fill="#222"/>
</svg>
