<?xml version="1.0" encoding="UTF-8"?>
<svg width="16" height="16" version="1.1" xmlns="http://www.w3.org/2000/svg">
 <path d="m4 0c-0.10278 0-0.20442 0.0052957-0.30469 0.015625-0.10026 0.010329-0.19965 0.024784-0.29688 0.044922-1.1667 0.24165-2.0962 1.1712-2.3379 2.3379-0.020138 0.097225-0.034593 0.19661-0.044922 0.29688s-0.015625 0.2019-0.015625 0.30469v3 7c0 1.6445 1.3555 3 3 3h2v-2h-2c-0.57031 0-1-0.42969-1-1v-7h10v1h2v-1-3c0-0.10278-0.005296-0.20442-0.015625-0.30469s-0.024784-0.19965-0.044922-0.29688c-0.040276-0.19445-0.10135-0.38138-0.17773-0.56055-0.38193-0.89584-1.1879-1.576-2.1602-1.7773-0.097222-0.020138-0.19661-0.034593-0.29687-0.044922-0.10027-0.010329-0.2019-0.015625-0.30469-0.015625h-2-6zm0 2h6 2c0.071289 0 0.1407 0.0066681 0.20703 0.019531 0.06633 0.012863 0.12921 0.032044 0.18945 0.056641 0.060242 0.024597 0.1169 0.054642 0.16992 0.089844s0.10181 0.076416 0.14648 0.12109c0.044677 0.044678 0.085891 0.09346 0.12109 0.14648 0.035202 0.053024 0.065247 0.10968 0.089844 0.16992 0.024597 0.060242 0.043778 0.12312 0.056641 0.18945 0.012863 0.06633 0.019531 0.13574 0.019531 0.20703v1h-10v-1c0-0.071289 0.0066683-0.1407 0.019531-0.20703 0.012863-0.06633 0.032044-0.12921 0.056641-0.18945 0.024597-0.060242 0.054642-0.1169 0.089844-0.16992 0.035202-0.053024 0.076416-0.10181 0.12109-0.14648s0.09346-0.085892 0.14648-0.12109c0.053024-0.035202 0.10968-0.065247 0.16992-0.089844 0.060242-0.024597 0.12312-0.043778 0.18945-0.056641 0.06633-0.012863 0.13574-0.019531 0.20703-0.019531zm4 7v7h1c0.55078 0 1-0.44922 1-1v-2.5859l3.293 3.293c0.1875 0.1875 0.44141 0.29297 0.70703 0.29297s0.51953-0.10547 0.70703-0.29297c0.39062-0.39062 0.39062-1.0234 0-1.4141l-3.293-3.293h2.5859c0.55078 0 1-0.44922 1-1v-1h-7z" fill="#222"/>
</svg>
