<?xml version="1.0" encoding="UTF-8"?>
<svg width="16" height="16" version="1.1" xmlns="http://www.w3.org/2000/svg">
 <path d="m4 0c-1.6445 0-3 1.3555-3 3v10c0 1.6445 1.3555 3 3 3h2v-2h-2c-0.57031 0-1-0.42969-1-1v-7h10v1h2v-4c0-1.6445-1.3555-3-3-3h-8zm0 2h8c0.57031 0 1 0.42969 1 1v1h-10v-1c0-0.57031 0.42969-1 1-1zm5 7c-0.26562 0-0.51953 0.10547-0.70703 0.29297-0.39062 0.39062-0.39062 1.0234 0 1.4141l3.293 3.293h-2.5859c-0.55078 0-1 0.44922-1 1v1h7v-7h-1c-0.55078 0-1 0.44922-1 1v2.5859l-3.293-3.293c-0.1875-0.1875-0.44141-0.29297-0.70703-0.29297z" fill="#222"/>
</svg>
