<?xml version="1.0" encoding="UTF-8" standalone="no"?>
<svg
   height="16px"
   viewBox="0 0 16 16"
   width="16px"
   version="1.1"
   id="svg10"
   sodipodi:docname="window-shrink-symbolic.svg"
   inkscape:version="1.2.1 (9c6d41e410, 2022-07-14)"
   xml:space="preserve"
   xmlns:inkscape="http://www.inkscape.org/namespaces/inkscape"
   xmlns:sodipodi="http://sodipodi.sourceforge.net/DTD/sodipodi-0.dtd"
   xmlns="http://www.w3.org/2000/svg"
   xmlns:svg="http://www.w3.org/2000/svg"><defs
     id="defs14" /><sodipodi:namedview
     id="namedview12"
     pagecolor="#ffffff"
     bordercolor="#666666"
     borderopacity="1.0"
     inkscape:pageshadow="2"
     inkscape:pageopacity="0.0"
     inkscape:pagecheckerboard="0"
     showgrid="true"
     inkscape:zoom="16"
     inkscape:cx="5.09375"
     inkscape:cy="19.65625"
     inkscape:window-width="2560"
     inkscape:window-height="1371"
     inkscape:window-x="0"
     inkscape:window-y="32"
     inkscape:window-maximized="1"
     inkscape:current-layer="svg10"
     inkscape:showpageshadow="2"
     inkscape:deskcolor="#d1d1d1"><inkscape:grid
       type="xygrid"
       id="grid831" /></sodipodi:namedview><path
     id="path4"
     style="fill:#2e3436"
     d="M 4 0 C 3.8972174 0 3.7955766 0.0052957125 3.6953125 0.015625 C 3.5950484 0.025954288 3.4956623 0.040409016 3.3984375 0.060546875 C 2.2317398 0.30220118 1.3022013 1.2317394 1.0605469 2.3984375 C 1.040409 2.4956623 1.0259543 2.5950484 1.015625 2.6953125 C 1.0052957 2.7955766 1 2.8972174 1 3 L 1 6 L 1 13 C 1 14.644529 2.3554706 16 4 16 L 6 16 L 6 14 L 4 14 C 3.4296886 14 3 13.570311 3 13 L 3 6 L 3 3 C 3 2.9287111 3.0066681 2.8592986 3.0195312 2.7929688 C 3.0323944 2.7266389 3.0515747 2.6637573 3.0761719 2.6035156 C 3.100769 2.543274 3.1308136 2.486618 3.1660156 2.4335938 C 3.2012176 2.3805695 3.2424317 2.3317871 3.2871094 2.2871094 C 3.3317871 2.2424317 3.3805695 2.2012176 3.4335938 2.1660156 C 3.486618 2.1308136 3.543274 2.100769 3.6035156 2.0761719 C 3.6637573 2.0515747 3.7266389 2.0323944 3.7929688 2.0195312 C 3.8592986 2.0066681 3.9287111 2 4 2 L 10 2 L 12 2 C 12.071289 2 12.140701 2.0066681 12.207031 2.0195312 C 12.273361 2.0323944 12.336243 2.0515747 12.396484 2.0761719 C 12.456726 2.100769 12.513382 2.1308136 12.566406 2.1660156 C 12.61943 2.2012176 12.668213 2.2424317 12.712891 2.2871094 C 12.757568 2.3317871 12.798782 2.3805695 12.833984 2.4335938 C 12.869186 2.486618 12.899231 2.543274 12.923828 2.6035156 C 12.948425 2.6637573 12.967606 2.7266389 12.980469 2.7929688 C 12.993332 2.8592986 13 2.9287111 13 3 L 13 6 L 13 7 L 15 7 L 15 6 L 15 3 C 15 2.8972174 14.994704 2.7955766 14.984375 2.6953125 C 14.974046 2.5950484 14.959591 2.4956623 14.939453 2.3984375 C 14.899177 2.2039878 14.838104 2.017059 14.761719 1.8378906 C 14.379792 0.94204804 13.573813 0.26192457 12.601562 0.060546875 C 12.504338 0.040409016 12.404952 0.025954288 12.304688 0.015625 C 12.204423 0.0052957125 12.102783 0 12 0 L 10 0 L 4 0 z " /><g
     id="g1262"
     transform="rotate(90,14.5,6.5)"><path
       d="m 24,12 c 0,-0.550781 -0.449219,-1 -1,-1 H 19 V 7 C 19,6.449219 18.550781,6 18,6 17.449219,6 17,6.449219 17,7 v 5 c 0,0.550781 0.449219,1 1,1 h 5 c 0.550781,0 1,-0.449219 1,-1 z m 0,0"
       id="path1138"
       style="fill:#2e3436" /><path
       id="path1140"
       style="fill:#2e3436"
       d="M 10,9.5859375 V 11 H 8.5859375 l 4.7070315,4.707031 C 13.480469,15.894531 13.734375,16 14,16 c 0.265625,0 0.519531,-0.105469 0.707031,-0.292969 0.390625,-0.390625 0.390625,-1.023437 0,-1.414062 z"
       transform="rotate(-90,14.5,6.5)" /><path
       d="m 17,12 h 1 v 1 h -1 z m 0,0"
       id="path1142"
       style="fill:#2e3436" /><path
       d="m 17,6 h 1 v 1 h -1 z m 0,0"
       id="path1144"
       style="fill:#2e3436" /><path
       d="m 23,12 h 1 v 1 h -1 z m 0,0"
       id="path1146"
       style="fill:#2e3436" /></g><path
     d="M 14,4 V 6 H 2 V 4 Z m 0,0"
     id="path6"
     style="fill:#2e3436;stroke-width:1" /></svg>
