<?xml version="1.0" encoding="UTF-8"?>
<svg width="24" height="24" version="1.1" xmlns="http://www.w3.org/2000/svg">
 <path d="m3.6667 2c-0.44271 0-0.86588 0.17578-1.1784 0.48828-0.65104 0.65104-0.65104 1.7057 0 2.3568l7.1549 7.1549-7.1549 7.1549c-0.65104 0.65104-0.65104 1.7057 0 2.3568 0.65104 0.65104 1.7057 0.65104 2.3568 0l7.1549-7.1549 7.1549 7.1549c0.65104 0.65104 1.7057 0.65104 2.3568 0 0.65104-0.65104 0.65104-1.7057 0-2.3568l-7.1549-7.1549 7.1549-7.1549c0.65104-0.65104 0.65104-1.7057 0-2.3568-0.3125-0.3125-0.73568-0.48828-1.1784-0.48828-0.44271 0-0.86588 0.17578-1.1784 0.48828l-7.1549 7.1549-7.1549-7.1549c-0.3125-0.3125-0.73568-0.48828-1.1784-0.48828z" fill="#222"/>
</svg>
