<?xml version="1.0" encoding="UTF-8"?>
<svg width="24" height="24" version="1.1" xmlns="http://www.w3.org/2000/svg">
 <path d="m2.5 1c-0.831 0-1.5 0.669-1.5 1.5v7.5h7.5c0.831 0 1.5-0.669 1.5-1.5s-0.669-1.5-1.5-1.5h-2.209l1.2695-1.1523a1.5 1.5 0 0 0 0.060547-0.058594 1.5 1.5 0 0 0 0.048828-0.027344c2.7586-2.3229 6.7514-2.361 9.5527-0.089844 2.8014 2.2712 3.591 6.1879 1.8887 9.3672s-5.3986 4.6935-8.8418 3.6211a1.5 1.5 0 0 0-1.8789 0.98438 1.5 1.5 0 0 0 0.98633 1.8789c4.7989 1.4947 10.006-0.63732 12.379-5.0684 2.3726-4.431 1.2617-9.9479-2.6426-13.113-1.9521-1.5827-4.3356-2.36-6.7109-2.3379-2.3753 0.022111-4.7437 0.84412-6.666 2.4629a1.5 1.5 0 0 0-0.03125 0.039062 1.5 1.5 0 0 0-0.16016 0.11914l-1.5449 1.4023v-2.5273c0-0.831-0.669-1.5-1.5-1.5z" fill="#222"/>
</svg>
