<?xml version="1.0" encoding="UTF-8" standalone="no"?>
<svg
   height="24"
   viewBox="0 0 24 24"
   width="24"
   version="1.1"
   id="svg1"
   sodipodi:docname="timer-reset-symbolic.svg"
   inkscape:version="1.3 (0e150ed6c4, 2023-07-21)"
   xml:space="preserve"
   xmlns:inkscape="http://www.inkscape.org/namespaces/inkscape"
   xmlns:sodipodi="http://sodipodi.sourceforge.net/DTD/sodipodi-0.dtd"
   xmlns="http://www.w3.org/2000/svg"
   xmlns:svg="http://www.w3.org/2000/svg"><defs
     id="defs1" /><sodipodi:namedview
     id="namedview1"
     pagecolor="#ffffff"
     bordercolor="#666666"
     borderopacity="1.0"
     inkscape:showpageshadow="2"
     inkscape:pageopacity="0.0"
     inkscape:pagecheckerboard="0"
     inkscape:deskcolor="#d1d1d1"
     showgrid="true"
     inkscape:zoom="2.9820879"
     inkscape:cx="-64.887424"
     inkscape:cy="28.671187"
     inkscape:window-width="2560"
     inkscape:window-height="1371"
     inkscape:window-x="0"
     inkscape:window-y="0"
     inkscape:window-maximized="1"
     inkscape:current-layer="svg1"><inkscape:grid
       id="grid1"
       units="px"
       originx="0"
       originy="0"
       spacingx="1"
       spacingy="1"
       empcolor="#3f3fff"
       empopacity="0.25098039"
       color="#3f3fff"
       opacity="0.1254902"
       empspacing="5"
       dotted="false"
       gridanglex="30"
       gridanglez="30"
       visible="true" /></sodipodi:namedview><path
     d="m 3.6666665,1.9999999 c -0.4427083,0 -0.865885,0.1757817 -1.178385,0.4882817 -0.6510417,0.6510416 -0.6510417,1.7057284 0,2.35677 L 9.6432301,12 2.4882815,19.154949 c -0.6510417,0.651041 -0.6510417,1.705728 0,2.35677 0.6510416,0.651041 1.7057284,0.651041 2.35677,0 l 7.1549495,-7.154949 7.154948,7.154949 c 0.651042,0.651041 1.705728,0.651041 2.35677,0 0.651042,-0.651042 0.651042,-1.705729 0,-2.35677 L 14.356771,12 21.511719,4.8450516 c 0.651042,-0.6510416 0.651042,-1.7057284 0,-2.35677 -0.312501,-0.3125 -0.735677,-0.4882817 -1.178385,-0.4882817 -0.442709,0 -0.865885,0.1757817 -1.178385,0.4882817 L 12.000001,9.64323 4.8450515,2.4882816 c -0.3125,-0.3125 -0.7356766,-0.4882817 -1.178385,-0.4882817 z m 0,0"
     fill="#2e3436"
     id="path1"
     style="stroke-width:1" /></svg>
