<?xml version="1.0" encoding="UTF-8"?>
<svg width="24" height="24" version="1.1" xmlns="http://www.w3.org/2000/svg">
 <path d="m4.668 14.006c-2.4944 0-3.8145 1.7029-3.8145 4.7188 0 2.8139 1.1405 4.291 3.127 4.291 1.8059 0 3.002-1.225 3.002-3.0547 0-1.6404-0.93638-2.6992-2.3359-2.6992-0.74493 0-1.378 0.28959-1.8633 0.85742 0.11287-1.5268 0.77973-2.3477 1.9648-2.3477 0.5079 0 1.1505 0.15177 1.6133 0.37891l0.49609-1.627c-0.5982-0.32808-1.3429-0.51758-2.1895-0.51758zm6.3438 0c-1.9978 0-3.3418 1.8174-3.3418 4.543 0 2.6751 1.3213 4.4668 3.2852 4.4668 1.9865 0 3.3301-1.8184 3.3301-4.5566 0-2.6751-1.3208-4.4531-3.2734-4.4531zm-0.04492 1.8672c0.77879 0 1.3086 1.0723 1.3086 2.6875 0 1.5521-0.51918 2.5859-1.2754 2.5859-0.80136 0-1.3203-1.0713-1.3203-2.6738 0-1.5647 0.51961-2.5996 1.2871-2.5996zm-6.9297 3.1172c0.63206 0 1.0488 0.45336 1.0488 1.1348 0 0.65617-0.38379 1.0859-0.9707 1.0859-0.66592 0-1.1057-0.58051-1.2637-1.6152 0.31603-0.37856 0.75665-0.60547 1.1855-0.60547z" style="fill:#222"/>
 <path d="m2.5 1c-0.831 0-1.5 0.669-1.5 1.5v7.5h7.5c0.831 0 1.5-0.669 1.5-1.5s-0.669-1.5-1.5-1.5h-2.002c1.7016-2.2727 4.5445-3.3967 7.3613-2.877 2.9569 0.54561 5.2965 2.7951 5.957 5.7285 0.66057 2.9334-0.48814 5.9681-2.9258 7.7285a1.5 1.5 0 0 0-0.33789 2.0938 1.5 1.5 0 0 0 2.0938 0.33789c3.4047-2.4588 5.0183-6.7232 4.0957-10.82-0.92264-4.0971-4.2079-7.2555-8.3379-8.0176-1.0325-0.19052-2.0695-0.2217-3.0801-0.10742-2.0843 0.23571-4.0565 1.0907-5.6523 2.4551a1.5 1.5 0 0 0-0.12695 0.10352l-1.5449 1.4023v-2.5273c0-0.831-0.669-1.5-1.5-1.5z" style="fill:#222"/>
</svg>
