<?xml version="1.0" encoding="UTF-8"?>
<svg width="256" height="72" version="1.1" viewBox="0 0 256 72" xmlns="http://www.w3.org/2000/svg">
 <g transform="translate(0 -980.36)" fill="#fff">
  <g transform="translate(-503.23 689.95)">
   <g stroke="#000" stroke-width="1.6">
    <path d="m509.66 325.48c5.53 1.4185 18.514 1.4185 24.294 0 0.80721-0.19813 1.4331 0.67185 1.5003 1.5003l1.9975 13.059h-31.289c0.66583-4.3529 1.3317-8.7058 1.9975-13.059 0.12564-0.82161 0.69518-1.7068 1.5003-1.5003z"/>
    <path d="m543.62 325.48c5.53 1.4185 18.514 1.4185 24.294 0 0.80721-0.19813 1.4331 0.67185 1.5003 1.5003l1.9975 13.059h-31.289c0.66583-4.3529 1.3317-8.7058 1.9975-13.059 0.12564-0.82161 0.69518-1.7068 1.5003-1.5003z"/>
    <path d="m577.58 325.48c5.53 1.4185 18.514 1.4185 24.294 0 0.80721-0.19813 1.4331 0.67185 1.5003 1.5003l1.9975 13.059h-31.289c0.66583-4.3529 1.3317-8.7058 1.9975-13.059 0.12564-0.82161 0.6952-1.7068 1.5003-1.5003z"/>
    <path d="m611.12 325.48c5.53 1.4185 18.514 1.4185 24.294 0 0.80721-0.19813 1.4331 0.67185 1.5003 1.5003l1.9975 13.059h-31.289c0.66583-4.3529 1.3317-8.7058 1.9975-13.059 0.12564-0.82161 0.69518-1.7068 1.5003-1.5003z"/>
    <path d="m645.08 325.48c5.53 1.4185 18.514 1.4185 24.294 0 0.80721-0.19813 1.4331 0.67185 1.5003 1.5003l1.9975 13.059h-31.289c0.66583-4.3529 1.3317-8.7058 1.9975-13.059 0.12565-0.82161 0.69519-1.7068 1.5003-1.5003z"/>
    <path d="m679.04 325.48c5.53 1.4185 18.514 1.4185 24.294 0 0.80721-0.19813 1.4331 0.67185 1.5003 1.5003l1.9975 13.059h-31.289c0.66583-4.3529 1.3317-8.7058 1.9975-13.059 0.12565-0.82161 0.69521-1.7068 1.5003-1.5003z"/>
    <path d="m712.58 325.48c5.53 1.4185 18.514 1.4185 24.294 0 0.80721-0.19813 1.4331 0.67185 1.5003 1.5003l1.9975 13.059h-31.289c0.66583-4.3529 1.3317-8.7058 1.9975-13.059 0.12565-0.82161 0.69519-1.7068 1.5003-1.5003z"/>
    <path d="m516.19 335.27c5.53 1.4185 18.514 1.4185 24.294 0 0.8072-0.19812 1.4331 0.67186 1.5003 1.5003l1.9975 13.059h-31.289c0.66584-4.3529 1.3317-8.7058 1.9975-13.059 0.12564-0.82161 0.69518-1.7068 1.5003-1.5003z"/>
    <path d="m550.15 335.27c5.53 1.4185 18.514 1.4185 24.294 0 0.8072-0.19812 1.4331 0.67186 1.5003 1.5003l1.9975 13.059h-31.289c0.66584-4.3529 1.3317-8.7058 1.9975-13.059 0.12564-0.82161 0.69518-1.7068 1.5003-1.5003z"/>
    <path d="m584.11 335.27c5.53 1.4185 18.514 1.4185 24.294 0 0.80721-0.19812 1.4331 0.67186 1.5003 1.5003l1.9975 13.059h-31.289c0.66584-4.3529 1.3317-8.7058 1.9975-13.059 0.12564-0.82161 0.6952-1.7068 1.5003-1.5003z"/>
    <path d="m617.65 335.27c5.53 1.4185 18.514 1.4185 24.294 0 0.80721-0.19812 1.4331 0.67186 1.5003 1.5003l1.9975 13.059h-31.289c0.66584-4.3529 1.3317-8.7058 1.9975-13.059 0.12564-0.82161 0.69518-1.7068 1.5003-1.5003z"/>
    <path d="m651.61 335.27c5.53 1.4185 18.514 1.4185 24.294 0 0.80721-0.19812 1.4331 0.67186 1.5003 1.5003l1.9975 13.059h-31.289c0.66583-4.3529 1.3317-8.7058 1.9975-13.059 0.12564-0.82161 0.69518-1.7068 1.5003-1.5003z"/>
    <path d="m685.57 335.27c5.53 1.4185 18.514 1.4185 24.294 0 0.80721-0.19812 1.4331 0.67186 1.5003 1.5003l1.9975 13.059h-31.289c0.66583-4.3529 1.3317-8.7058 1.9975-13.059 0.12564-0.82161 0.6952-1.7068 1.5003-1.5003z"/>
    <path d="m719.11 335.27c5.53 1.4185 18.514 1.4185 24.294 0 0.80721-0.19812 1.4331 0.67186 1.5003 1.5003l1.9975 13.059h-31.289c0.66583-4.3529 1.3317-8.7058 1.9975-13.059 0.12564-0.82161 0.69518-1.7068 1.5003-1.5003z"/>
    <path d="m525.98 345.06c5.53 1.4185 18.514 1.4185 24.294 0 0.80721-0.19812 1.4331 0.67185 1.5003 1.5003l1.9975 13.059h-31.289c0.66583-4.3529 1.3317-8.7058 1.9975-13.059 0.12564-0.82162 0.69518-1.7068 1.5003-1.5003z"/>
    <path d="m559.94 345.06c5.53 1.4185 18.514 1.4185 24.294 0 0.80721-0.19812 1.4331 0.67185 1.5003 1.5003l1.9975 13.059h-31.289c0.66583-4.3529 1.3317-8.7058 1.9975-13.059 0.12565-0.82162 0.69519-1.7068 1.5003-1.5003z"/>
    <path d="m593.9 345.06c5.53 1.4185 18.514 1.4185 24.294 0 0.80721-0.19812 1.4331 0.67185 1.5003 1.5003l1.9975 13.059h-31.289c0.66583-4.3529 1.3317-8.7058 1.9975-13.059 0.12565-0.82162 0.69521-1.7068 1.5003-1.5003z"/>
    <path d="m627.44 345.06c5.53 1.4185 18.514 1.4185 24.294 0 0.80721-0.19812 1.4331 0.67185 1.5003 1.5003l1.9975 13.059h-31.289c0.66583-4.3529 1.3317-8.7058 1.9975-13.059 0.12565-0.82162 0.69519-1.7068 1.5003-1.5003z"/>
    <path d="m661.4 345.06c5.53 1.4185 18.514 1.4185 24.294 0 0.80721-0.19812 1.4331 0.67185 1.5003 1.5003l1.9975 13.059h-31.289c0.66583-4.3529 1.3317-8.7058 1.9975-13.059 0.12564-0.82162 0.69519-1.7068 1.5003-1.5003z"/>
    <path d="m695.36 345.06c5.53 1.4185 18.514 1.4185 24.294 0 0.8072-0.19812 1.4331 0.67185 1.5003 1.5003l1.9975 13.059h-31.289c0.66583-4.3529 1.3317-8.7058 1.9975-13.059 0.12564-0.82162 0.69521-1.7068 1.5003-1.5003z"/>
    <path d="m728.9 345.06c5.53 1.4185 18.514 1.4185 24.294 0 0.8072-0.19812 1.4331 0.67185 1.5003 1.5003l1.9975 13.059h-31.289c0.66583-4.3529 1.3317-8.7058 1.9975-13.059 0.12564-0.82162 0.69519-1.7068 1.5003-1.5003z"/>
   </g>
   <path transform="matrix(1.3598 0 0 1.3598 418.09 -671.09)" d="m100.16 708.93v9.5137l-2.998-3.0254c-0.21232-0.22989-0.51209-0.33054-0.81836-0.30664h-1.0918v1.0898c-1.31e-4 0.0113-5.02e-4 0.0238 0 0.0352 0.01222 0.27811 0.14116 0.55622 0.3418 0.75l5.6914 5.7617 5.6602-5.7617c0.20529-0.20533 0.30664-0.49576 0.30664-0.78516v-1.0898h-1.0918c-0.28941 0-0.57793 0.10139-0.7832 0.30664l-3.0332 3.0859v-9.5742z" color="#bebebe" enable-background="new" stroke="#000" stroke-width="2.4221"/>
   <path transform="matrix(1.3598 0 0 1.3598 418.09 -671.09)" d="m100.16 708.93v9.5137l-2.998-3.0254c-0.21232-0.22989-0.51209-0.33054-0.81836-0.30664h-1.0918v1.0898c-1.31e-4 0.0113-5.02e-4 0.0238 0 0.0352 0.01222 0.27811 0.14116 0.55622 0.3418 0.75l5.6914 5.7617 5.6602-5.7617c0.20529-0.20533 0.30664-0.49576 0.30664-0.78516v-1.0898h-1.0918c-0.28941 0-0.57793 0.10139-0.7832 0.30664l-3.0332 3.0859v-9.5742z" color="#bebebe" enable-background="new" stroke-width="2.4221"/>
  </g>
  <g transform="translate(-435.21 699.74)" stroke-width="2.4221">
   <path transform="matrix(1.3598 0 0 1.3598 418.09 -671.09)" d="m100.16 708.93v9.5137l-2.998-3.0254c-0.21232-0.22989-0.51209-0.33054-0.81836-0.30664h-1.0918v1.0898c-1.31e-4 0.0113-5.02e-4 0.0238 0 0.0352 0.01222 0.27811 0.14116 0.55622 0.3418 0.75l5.6914 5.7617 5.6602-5.7617c0.20529-0.20533 0.30664-0.49576 0.30664-0.78516v-1.0898h-1.0918c-0.28941 0-0.57793 0.10139-0.7832 0.30664l-3.0332 3.0859v-9.5742z" color="#bebebe" enable-background="new" stroke="#000"/>
   <path transform="matrix(1.3598 0 0 1.3598 418.09 -671.09)" d="m100.16 708.93v9.5137l-2.998-3.0254c-0.21232-0.22989-0.51209-0.33054-0.81836-0.30664h-1.0918v1.0898c-1.31e-4 0.0113-5.02e-4 0.0238 0 0.0352 0.01222 0.27811 0.14116 0.55622 0.3418 0.75l5.6914 5.7617 5.6602-5.7617c0.20529-0.20533 0.30664-0.49576 0.30664-0.78516v-1.0898h-1.0918c-0.28941 0-0.57793 0.10139-0.7832 0.30664l-3.0332 3.0859v-9.5742z" color="#bebebe" enable-background="new"/>
  </g>
  <g transform="translate(-333.12 699.69)" stroke-width="2.4221">
   <path transform="matrix(1.3598 0 0 1.3598 418.09 -671.09)" d="m100.16 708.93v9.5137l-2.998-3.0254c-0.21232-0.22989-0.51209-0.33054-0.81836-0.30664h-1.0918v1.0898c-1.31e-4 0.0113-5.02e-4 0.0238 0 0.0352 0.01222 0.27811 0.14116 0.55622 0.3418 0.75l5.6914 5.7617 5.6602-5.7617c0.20529-0.20533 0.30664-0.49576 0.30664-0.78516v-1.0898h-1.0918c-0.28941 0-0.57793 0.10139-0.7832 0.30664l-3.0332 3.0859v-9.5742z" color="#bebebe" enable-background="new" stroke="#000"/>
   <path transform="matrix(1.3598 0 0 1.3598 418.09 -671.09)" d="m100.16 708.93v9.5137l-2.998-3.0254c-0.21232-0.22989-0.51209-0.33054-0.81836-0.30664h-1.0918v1.0898c-1.31e-4 0.0113-5.02e-4 0.0238 0 0.0352 0.01222 0.27811 0.14116 0.55622 0.3418 0.75l5.6914 5.7617 5.6602-5.7617c0.20529-0.20533 0.30664-0.49576 0.30664-0.78516v-1.0898h-1.0918c-0.28941 0-0.57793 0.10139-0.7832 0.30664l-3.0332 3.0859v-9.5742z" color="#bebebe" enable-background="new"/>
  </g>
 </g>
</svg>
