<?xml version="1.0" encoding="UTF-8" standalone="no"?>
<svg
   width="16"
   height="16"
   version="1.1"
   id="svg18"
   sodipodi:docname="view-fullscreen-symbolic.svg"
   inkscape:version="1.1 (c68e22c387, 2021-05-23)"
   xmlns:inkscape="http://www.inkscape.org/namespaces/inkscape"
   xmlns:sodipodi="http://sodipodi.sourceforge.net/DTD/sodipodi-0.dtd"
   xmlns="http://www.w3.org/2000/svg"
   xmlns:svg="http://www.w3.org/2000/svg">
  <defs
     id="defs22" />
  <sodipodi:namedview
     id="namedview20"
     pagecolor="#ffffff"
     bordercolor="#666666"
     borderopacity="1.0"
     inkscape:pageshadow="2"
     inkscape:pageopacity="0.0"
     inkscape:pagecheckerboard="0"
     showgrid="false"
     inkscape:zoom="1.7050781"
     inkscape:cx="-92.371134"
     inkscape:cy="86.5063"
     inkscape:window-width="2560"
     inkscape:window-height="1371"
     inkscape:window-x="0"
     inkscape:window-y="32"
     inkscape:window-maximized="1"
     inkscape:current-layer="svg18" />
  <g
     id="g899"
     transform="translate(-10.000294,8.0003206)">
    <path
       d="m 12,1 a 1,1 0 1 0 0,2 h 3 v 3 a 1,1 0 1 0 2,0 V 2 A 1,1 0 0 0 16,1 Z"
       style="color:#000000;line-height:normal;font-variant-ligatures:normal;font-variant-position:normal;font-variant-caps:normal;font-variant-numeric:normal;font-variant-alternates:normal;font-feature-settings:normal;text-indent:0;text-align:start;text-decoration-line:none;text-decoration-style:solid;text-decoration-color:#000000;text-transform:none;text-orientation:mixed;shape-padding:0;isolation:auto;mix-blend-mode:normal;fill:#474747;marker:none"
       font-weight="400"
       font-family="sans-serif"
       overflow="visible"
       id="path845" />
    <path
       d="m 16,1 h 1 v 1 h -1 z"
       style="color:#000000;fill:#474747;marker:none"
       overflow="visible"
       id="path847" />
    <path
       d="m 15.984,0.99 a 1,1 0 0 0 -0.69,0.301 l -4.5,4.469 a 1.0002056,1.0002056 0 1 0 1.411,1.418 l 4.5,-4.469 A 1,1 0 0 0 15.985,0.99 Z"
       style="color:#000000;line-height:normal;font-variant-ligatures:normal;font-variant-position:normal;font-variant-caps:normal;font-variant-numeric:normal;font-variant-alternates:normal;font-feature-settings:normal;text-indent:0;text-align:start;text-decoration-line:none;text-decoration-style:solid;text-decoration-color:#000000;text-transform:none;text-orientation:mixed;shape-padding:0;isolation:auto;mix-blend-mode:normal;fill:#474747;marker:none"
       font-weight="400"
       font-family="sans-serif"
       overflow="visible"
       id="path849" />
    <path
       style="color:#000000;fill:#474747;marker:none"
       d="m 11,1 h 1 v 1 h -1 z"
       id="path868" />
    <path
       style="color:#000000;fill:#474747;marker:none"
       d="m 16,6 h 1 v 1 h -1 z"
       id="path866" />
  </g>
  <g
     id="g910"
     transform="translate(0,-4)">
    <path
       d="m 9,10 h 1 v 1 H 9 Z"
       style="color:#000000;fill:#474747;marker:none"
       overflow="visible"
       id="path843" />
    <path
       d="M 9.984,4.986 A 1,1 0 0 0 9,6 v 4 a 1,1 0 0 0 1,1 h 4 A 1,1 0 1 0 14,9 H 11 V 6 A 1,1 0 0 0 9.984,4.986 Z"
       style="color:#000000;line-height:normal;font-variant-ligatures:normal;font-variant-position:normal;font-variant-caps:normal;font-variant-numeric:normal;font-variant-alternates:normal;font-feature-settings:normal;text-indent:0;text-align:start;text-decoration-line:none;text-decoration-style:solid;text-decoration-color:#000000;text-transform:none;text-orientation:mixed;shape-padding:0;isolation:auto;mix-blend-mode:normal;fill:#474747;marker:none"
       font-weight="400"
       font-family="sans-serif"
       overflow="visible"
       id="path839" />
    <path
       d="m 14.48,4.49 a 1,1 0 0 0 -0.687,0.303 l -4.5,4.5 a 1,1 0 1 0 1.414,1.414 l 4.5,-4.5 A 1,1 0 0 0 14.48,4.49 Z"
       style="color:#000000;line-height:normal;font-variant-ligatures:normal;font-variant-position:normal;font-variant-caps:normal;font-variant-numeric:normal;font-variant-alternates:normal;font-feature-settings:normal;text-indent:0;text-align:start;text-decoration-line:none;text-decoration-style:solid;text-decoration-color:#000000;text-transform:none;text-orientation:mixed;shape-padding:0;isolation:auto;mix-blend-mode:normal;fill:#474747;marker:none"
       font-weight="400"
       font-family="sans-serif"
       overflow="visible"
       id="path841" />
    <path
       style="color:#000000;fill:#474747;marker:none"
       d="m 14,10 h 1 v 1 h -1 z"
       id="path864" />
    <path
       style="color:#000000;fill:#474747;marker:none"
       d="m 9,5 h 1 V 6 H 9 Z"
       id="path851" />
  </g>
</svg>
