<?xml version="1.0" encoding="UTF-8" standalone="no"?>
<svg
   width="16"
   height="16"
   version="1.1"
   id="svg18"
   sodipodi:docname="rewind-symbolic.svg"
   inkscape:version="1.1 (c68e22c387, 2021-05-23)"
   xmlns:inkscape="http://www.inkscape.org/namespaces/inkscape"
   xmlns:sodipodi="http://sodipodi.sourceforge.net/DTD/sodipodi-0.dtd"
   xmlns="http://www.w3.org/2000/svg"
   xmlns:svg="http://www.w3.org/2000/svg">
  <defs
     id="defs22" />
  <sodipodi:namedview
     id="namedview20"
     pagecolor="#ffffff"
     bordercolor="#666666"
     borderopacity="1.0"
     inkscape:pageshadow="2"
     inkscape:pageopacity="0.0"
     inkscape:pagecheckerboard="0"
     showgrid="true"
     inkscape:zoom="54.562499"
     inkscape:cx="4.6460482"
     inkscape:cy="8.9896909"
     inkscape:window-width="2560"
     inkscape:window-height="1371"
     inkscape:window-x="0"
     inkscape:window-y="32"
     inkscape:window-maximized="1"
     inkscape:current-layer="svg18">
    <inkscape:grid
       type="xygrid"
       id="grid843" />
  </sodipodi:namedview>
  <g
     id="g841"
     transform="translate(-9e-7,-0.381295)">
    <path
       d="m 8.5946459,0.38232803 c 0.613266,0.007559 1.234356,0.0899528 1.8476221,0.25398426 3.273449,0.87892911 5.558627,3.85549611 5.558627,7.24611031 0,3.3906144 -2.285178,6.3671814 -5.558627,7.2421794 -3.2734111,0.878929 -6.7421483,-0.558576 -8.4374554,-3.49217 -0.2774173,-0.480491 -0.1092283,-1.089864 0.3669921,-1.367206 0.4765607,-0.273638 1.0898646,-0.109229 1.3672063,0.366992 1.2461481,2.160151 3.7773359,3.207042 6.1875029,2.56252 2.4062361,-0.644561 4.0742171,-2.820322 4.0742171,-5.3125044 0,-2.4961134 -1.667981,-4.6679811 -4.0742171,-5.312504 C 7.5163469,1.9252068 4.9851591,2.9720603 3.739011,5.1322115 3.6804284,5.2180068 3.6139087,5.296243 3.5360504,5.3586053 l 0.018898,0.015118 0.00756,0.00756 h 1.4375055 c 0.55079,0 0.999987,0.4492347 0.999987,1.0000252 V 7.381295 H 0 v -6 h 0.9999874 c 0.5507528,0 0.9999874,0.4492346 0.9999874,0.9999874 v 1.6875213 l 0.015118,0.011338 0.011339,0.011339 C 3.3037984,1.9117895 5.5577199,0.57194693 7.9795659,0.40009181 c 0.203338,-0.0151181 0.406261,-0.0188976 0.613303,-0.0188976 z m 0,0"
       fill="#2e3436"
       id="path92742"
       style="fill:#474747;stroke-width:0.999999;fill-opacity:1" />
  </g>
</svg>
