<?xml version="1.0" encoding="UTF-8" standalone="no"?>
<svg
   height="16px"
   viewBox="0 0 16 16"
   width="16px"
   version="1.1"
   id="svg10"
   sodipodi:docname="window-compact-size-symbolic.svg"
   inkscape:version="1.2.1 (9c6d41e410, 2022-07-14)"
   xmlns:inkscape="http://www.inkscape.org/namespaces/inkscape"
   xmlns:sodipodi="http://sodipodi.sourceforge.net/DTD/sodipodi-0.dtd"
   xmlns="http://www.w3.org/2000/svg"
   xmlns:svg="http://www.w3.org/2000/svg">
  <path
     id="path1357"
     style="fill:#2e3436"
     d="m 1,5 v 2 c 0,1.6445234 1.355477,3 3,3 h 2 6 c 1.644525,0 3,-1.3554746 3,-3 V 5 h -2 v 2 c 0,0.5703094 -0.429691,1 -1,1 H 6 4 C 3.429692,8 3,7.5703084 3,7 V 5 Z" />
  <defs
     id="defs14" />
  <sodipodi:namedview
     id="namedview12"
     pagecolor="#ffffff"
     bordercolor="#666666"
     borderopacity="1.0"
     inkscape:pageshadow="2"
     inkscape:pageopacity="0.0"
     inkscape:pagecheckerboard="0"
     showgrid="true"
     inkscape:zoom="5.6568543"
     inkscape:cx="-27.665553"
     inkscape:cy="64.611882"
     inkscape:window-width="2560"
     inkscape:window-height="1371"
     inkscape:window-x="0"
     inkscape:window-y="32"
     inkscape:window-maximized="1"
     inkscape:current-layer="svg10"
     inkscape:showpageshadow="2"
     inkscape:deskcolor="#d1d1d1">
    <inkscape:grid
       type="xygrid"
       id="grid831" />
  </sodipodi:namedview>
  <path
     id="path1353"
     style="fill:#2e3436"
     d="M 4,0 C 2.355477,0 1,1.3554756 1,3 V 6 H 3 V 3 C 3,2.4296906 3.429692,2 4,2 h 6 2 c 0.570309,0 1,0.4296906 1,1 v 3 h 2 V 3 C 15,1.3554756 13.644524,0 12,0 h -2 z" />
</svg>
