<?xml version="1.0" encoding="UTF-8" standalone="no"?>
<svg
   height="16px"
   viewBox="0 0 16 16"
   width="16px"
   version="1.1"
   id="svg10"
   sodipodi:docname="window-normal-size-symbolic.svg"
   inkscape:version="1.2.1 (9c6d41e410, 2022-07-14)"
   xmlns:inkscape="http://www.inkscape.org/namespaces/inkscape"
   xmlns:sodipodi="http://sodipodi.sourceforge.net/DTD/sodipodi-0.dtd"
   xmlns="http://www.w3.org/2000/svg"
   xmlns:svg="http://www.w3.org/2000/svg">
  <defs
     id="defs14" />
  <sodipodi:namedview
     id="namedview12"
     pagecolor="#ffffff"
     bordercolor="#666666"
     borderopacity="1.0"
     inkscape:pageshadow="2"
     inkscape:pageopacity="0.0"
     inkscape:pagecheckerboard="0"
     showgrid="true"
     inkscape:zoom="4"
     inkscape:cx="-99.375"
     inkscape:cy="22.875"
     inkscape:window-width="2560"
     inkscape:window-height="1371"
     inkscape:window-x="0"
     inkscape:window-y="32"
     inkscape:window-maximized="1"
     inkscape:current-layer="svg10"
     inkscape:showpageshadow="2"
     inkscape:deskcolor="#d1d1d1">
    <inkscape:grid
       type="xygrid"
       id="grid831" />
  </sodipodi:namedview>
  <path
     id="path6"
     style="fill:#2e3436;stroke-width:1"
     d="M 4 0 C 2.3554746 0 1 1.3554736 1 3 L 1 9 L 1 13 C 1 14.644525 2.3554746 16 4 16 L 6 16 L 12 16 C 13.644527 16 15 14.644527 15 13 L 15 7 L 15 3 C 15 1.3554736 13.644526 0 12 0 L 10 0 L 4 0 z M 4 2 L 10 2 L 12 2 C 12.57031 2 13 2.4296896 13 3 L 13 4 L 3 4 L 3 3 C 3 2.4296896 3.4296906 2 4 2 z M 3 6 L 13 6 L 13 7 L 13 13 C 13 13.57031 12.57031 14 12 14 L 6 14 L 4 14 C 3.4296906 14 3 13.570309 3 13 L 3 9 L 3 6 z " />
</svg>
