<?xml version="1.0" encoding="UTF-8" standalone="no"?>
<svg
   height="16px"
   viewBox="0 0 16 16"
   width="16px"
   version="1.1"
   id="svg10"
   sodipodi:docname="window-tiny-size-symbolic.svg"
   inkscape:version="1.2.1 (9c6d41e410, 2022-07-14)"
   xmlns:inkscape="http://www.inkscape.org/namespaces/inkscape"
   xmlns:sodipodi="http://sodipodi.sourceforge.net/DTD/sodipodi-0.dtd"
   xmlns="http://www.w3.org/2000/svg"
   xmlns:svg="http://www.w3.org/2000/svg">
  <defs
     id="defs14" />
  <sodipodi:namedview
     id="namedview12"
     pagecolor="#ffffff"
     bordercolor="#666666"
     borderopacity="1.0"
     inkscape:pageshadow="2"
     inkscape:pageopacity="0.0"
     inkscape:pagecheckerboard="0"
     showgrid="true"
     inkscape:zoom="22.627417"
     inkscape:cx="26.671184"
     inkscape:cy="9.3470678"
     inkscape:window-width="2560"
     inkscape:window-height="1371"
     inkscape:window-x="0"
     inkscape:window-y="32"
     inkscape:window-maximized="1"
     inkscape:current-layer="svg10"
     inkscape:showpageshadow="2"
     inkscape:deskcolor="#d1d1d1">
    <inkscape:grid
       type="xygrid"
       id="grid831" />
  </sodipodi:namedview>
  <path
     id="path1423"
     style="fill:#2e3436"
     d="m 1,3 v 1 c 0,1.6445218 1.355479,3 3,3 h 2 6 c 1.644523,0 3,-1.3554762 3,-3 V 3 h -2 v 1 c 0,0.5703088 -0.429692,1 -1,1 H 6 4 C 3.429693,5 3,4.5703078 3,4 V 3 Z" />
  <path
     id="path1425"
     style="fill:#2e3436"
     d="M 4,0 C 2.355479,0 1,1.3554772 1,3 V 4 H 3 V 3 C 3,2.4296912 3.429693,2 4,2 h 6 2 c 0.570308,0 1,0.4296912 1,1 v 1 h 2 V 3 C 15,1.3554772 13.644522,0 12,0 h -2 z" />
</svg>
