<?xml version="1.0" encoding="UTF-8" standalone="no"?>
<svg
   height="16px"
   viewBox="0 0 16 16"
   width="16px"
   version="1.1"
   id="svg10"
   sodipodi:docname="shrink-symbolic.svg"
   inkscape:version="1.2.1 (9c6d41e410, 2022-07-14)"
   xmlns:inkscape="http://www.inkscape.org/namespaces/inkscape"
   xmlns:sodipodi="http://sodipodi.sourceforge.net/DTD/sodipodi-0.dtd"
   xmlns="http://www.w3.org/2000/svg"
   xmlns:svg="http://www.w3.org/2000/svg">
  <path
     id="path1357"
     style="fill:#2e3436"
     d="m 81,5 v 2 c 0,1.6445234 1.355477,3 3,3 h 2 6 c 1.644525,0 3,-1.3554746 3,-3 V 5 h -2 v 2 c 0,0.5703094 -0.429691,1 -1,1 H 86 84 C 83.429692,8 83,7.5703084 83,7 V 5 Z" />
  <defs
     id="defs14" />
  <sodipodi:namedview
     id="namedview12"
     pagecolor="#ffffff"
     bordercolor="#666666"
     borderopacity="1.0"
     inkscape:pageshadow="2"
     inkscape:pageopacity="0.0"
     inkscape:pagecheckerboard="0"
     showgrid="true"
     inkscape:zoom="16"
     inkscape:cx="-14.34375"
     inkscape:cy="4.34375"
     inkscape:window-width="2560"
     inkscape:window-height="1371"
     inkscape:window-x="0"
     inkscape:window-y="32"
     inkscape:window-maximized="1"
     inkscape:current-layer="svg10"
     inkscape:showpageshadow="2"
     inkscape:deskcolor="#d1d1d1">
    <inkscape:grid
       type="xygrid"
       id="grid831" />
  </sodipodi:namedview>
  <path
     id="path4"
     style="fill:#2e3436"
     d="m 24,0 c -1.644531,0 -3,1.355469 -3,3 v 10 c 0,1.644531 1.355469,3 3,3 h 2 v -2 h -2 c -0.570312,0 -1,-0.429688 -1,-1 V 3 c 0,-0.570312 0.429688,-1 1,-1 h 8 c 0.570312,0 1,0.429688 1,1 v 4 h 2 V 3 C 35,1.355469 33.644531,0 32,0 Z"
     sodipodi:nodetypes="ssssccssssssccsss" />
  <path
     d="M 54,4 V 6 H 42 V 4 Z m 0,0"
     id="path6"
     style="fill:#2e3436;stroke-width:1" />
  <g
     id="g1262"
     transform="rotate(90,24.5,16.5)">
    <path
       d="m 24,12 c 0,-0.550781 -0.449219,-1 -1,-1 H 19 V 7 C 19,6.449219 18.550781,6 18,6 17.449219,6 17,6.449219 17,7 v 5 c 0,0.550781 0.449219,1 1,1 h 5 c 0.550781,0 1,-0.449219 1,-1 z m 0,0"
       id="path1138"
       style="fill:#2e3436" />
    <path
       id="path1140"
       style="fill:#2e3436"
       d="M 10,9.5859375 V 11 H 8.5859375 l 4.7070315,4.707031 C 13.480469,15.894531 13.734375,16 14,16 c 0.265625,0 0.519531,-0.105469 0.707031,-0.292969 0.390625,-0.390625 0.390625,-1.023437 0,-1.414062 z"
       transform="rotate(-90,14.5,6.5)" />
    <path
       d="m 17,12 h 1 v 1 h -1 z m 0,0"
       id="path1142"
       style="fill:#2e3436" />
    <path
       d="m 17,6 h 1 v 1 h -1 z m 0,0"
       id="path1144"
       style="fill:#2e3436" />
    <path
       d="m 23,12 h 1 v 1 h -1 z m 0,0"
       id="path1146"
       style="fill:#2e3436" />
  </g>
  <rect
     style="fill:#2e3436;stroke:none;stroke-width:0.999999;-inkscape-stroke:none;stop-color:#000000"
     id="rect361"
     height="5"
     x="-90.979996"
     y="0.077757448"
     rx="1.25"
     ry="1.25"
     width="12" />
  <rect
     style="fill:#2e3436;stroke:none;stroke-width:0.999999;-inkscape-stroke:none;stop-color:#000000"
     id="rect415"
     height="8"
     x="-34.979992"
     y="-19.922243"
     rx="1.25"
     ry="1.25"
     width="12" />
  <path
     id="path417"
     style="fill:#2e3436"
     d="m 44,0 c -1.644527,0 -3,1.355472 -3,3 v 6 4 c 0,1.644527 1.355473,3 3,3 h 2 6 c 1.644529,0 3,-1.355471 3,-3 V 7 3 C 55,1.355472 53.644528,0 52,0 h -2 z m 0,2 h 6 2 c 0.570311,0 1,0.429689 1,1 v 4 6 c 0,0.570311 -0.429689,1 -1,1 h -6 -2 c -0.57031,0 -1,-0.42969 -1,-1 V 9 3 c 0,-0.570311 0.42969,-1 1,-1 z" />
  <path
     id="path1347"
     style="font-variation-settings:normal;opacity:1;vector-effect:none;fill:#ffffff;fill-opacity:1;stroke-width:1;stroke-linecap:butt;stroke-linejoin:miter;stroke-miterlimit:4;stroke-dasharray:none;stroke-dashoffset:0;stroke-opacity:1;-inkscape-stroke:none;stop-color:#000000;stop-opacity:1"
     d="m -30,-18 4,2 -4,1.999999 z"
     sodipodi:nodetypes="cccc" />
  <path
     id="path1353"
     style="fill:#2e3436"
     d="m 84,0 c -1.644523,0 -3,1.3554756 -3,3 v 3 h 2 V 3 c 0,-0.5703094 0.429692,-1 1,-1 h 6 2 c 0.570309,0 1,0.4296906 1,1 v 3 h 2 V 3 C 95,1.3554756 93.644524,0 92,0 h -2 z" />
  <path
     id="path1423"
     style="fill:#2e3436"
     d="m 1,3 v 1 c 0,1.6445218 1.355479,3 3,3 h 2 6 c 1.644523,0 3,-1.3554762 3,-3 V 3 h -2 v 1 c 0,0.5703088 -0.429692,1 -1,1 H 6 4 C 3.429693,5 3,4.5703078 3,4 V 3 Z" />
  <path
     id="path1425"
     style="fill:#2e3436"
     d="M 4,0 C 2.355479,0 1,1.3554772 1,3 V 4 H 3 V 3 C 3,2.4296912 3.429693,2 4,2 h 6 2 c 0.570308,0 1,0.4296912 1,1 v 1 h 2 V 3 C 15,1.3554772 13.644522,0 12,0 h -2 z" />
</svg>
