<?xml version="1.0" encoding="UTF-8"?>
<svg xmlns="http://www.w3.org/2000/svg" xmlns:xlink="http://www.w3.org/1999/xlink" width="16pt" height="16pt" viewBox="0 0 16 16" version="1.1">
<defs>
<clipPath id="clip1">
  <path d="M 0 0 L 16 0 L 16 6.800781 L 0 6.800781 Z M 0 6.800781 L 6.800781 6.800781 L 6.800781 16 L 0 16 Z M 0 6.800781 "/>
</clipPath>
</defs>
<g id="surface225">
<path style="fill:none;stroke-width:2.2;stroke-linecap:butt;stroke-linejoin:miter;stroke:rgb(0%,0%,0%);stroke-opacity:0.298039;stroke-miterlimit:10;" d="M 1.101562 0 L 1.101562 6 M 4.898438 0 L 4.898438 6 " transform="matrix(1,0,0,1,10,10)"/>
<path style="fill:none;stroke-width:2.2;stroke-linecap:butt;stroke-linejoin:miter;stroke:rgb(87.45098%,85.882353%,82.352941%);stroke-opacity:1;stroke-miterlimit:10;" d="M 1.101562 0 L 1.101562 6 M 4.898438 0 L 4.898438 6 " transform="matrix(1,0,0,1,9,9)"/>
<g clip-path="url(#clip1)" clip-rule="nonzero">
<path style="fill:none;stroke-width:2.2;stroke-linecap:round;stroke-linejoin:miter;stroke:rgb(0%,0%,0%);stroke-opacity:0.0679062;stroke-miterlimit:10;" d="M -3.773438 4.46875 C -2.566406 6.128906 -0.582031 7.042969 1.464844 6.882812 C 3.507812 6.722656 5.324219 5.507812 6.257812 3.679688 C 7.1875 1.847656 7.101562 -0.332031 6.03125 -2.082031 C 4.957031 -3.832031 3.054688 -4.898438 1 -4.898438 " transform="matrix(1,0,0,1,8,8)"/>
<path style="fill:none;stroke-width:2.2;stroke-linecap:round;stroke-linejoin:miter;stroke:rgb(87.45098%,85.882353%,82.352941%);stroke-opacity:0.298039;stroke-miterlimit:10;" d="M -4.773438 3.46875 C -3.566406 5.128906 -1.582031 6.042969 0.464844 5.882812 C 2.507812 5.722656 4.324219 4.507812 5.257812 2.679688 C 6.1875 0.847656 6.101562 -1.332031 5.03125 -3.082031 C 3.957031 -4.832031 2.054688 -5.898438 0 -5.898438 " transform="matrix(1,0,0,1,8,8)"/>
</g>
</g>
</svg>
