<?xml version="1.0" encoding="UTF-8"?>
<svg xmlns="http://www.w3.org/2000/svg" xmlns:xlink="http://www.w3.org/1999/xlink" width="16pt" height="16pt" viewBox="0 0 16 16" version="1.1">
<g id="surface221">
<path style="fill:none;stroke-width:2.2;stroke-linecap:round;stroke-linejoin:miter;stroke:rgb(0%,0%,0%);stroke-opacity:0.0679062;stroke-miterlimit:10;" d="M -4.609375 2.824219 C -3.925781 4.933594 -2.113281 6.480469 0.078125 6.828125 C 2.269531 7.175781 4.46875 6.261719 5.773438 4.46875 C 7.078125 2.671875 7.265625 0.296875 6.257812 -1.679688 C 5.25 -3.65625 3.21875 -4.898438 1 -4.898438 " transform="matrix(1,0,0,1,8,8)"/>
<path style="fill:none;stroke-width:2.2;stroke-linecap:round;stroke-linejoin:miter;stroke:rgb(87.45098%,85.882353%,82.352941%);stroke-opacity:0.298039;stroke-miterlimit:10;" d="M -5.609375 1.824219 C -4.925781 3.933594 -3.113281 5.480469 -0.921875 5.828125 C 1.269531 6.175781 3.46875 5.261719 4.773438 3.46875 C 6.078125 1.671875 6.265625 -0.703125 5.257812 -2.679688 C 4.25 -4.65625 2.21875 -5.898438 0 -5.898438 " transform="matrix(1,0,0,1,8,8)"/>
</g>
</svg>
