<?xml version="1.0" encoding="UTF-8"?>
<svg xmlns="http://www.w3.org/2000/svg" xmlns:xlink="http://www.w3.org/1999/xlink" width="16pt" height="16pt" viewBox="0 0 16 16" version="1.1">
<g id="surface189">
<path style="fill:none;stroke-width:2.2;stroke-linecap:round;stroke-linejoin:miter;stroke:rgb(0%,0%,0%);stroke-opacity:0.0679062;stroke-miterlimit:10;" d="M -2.46875 -3.773438 C -4.816406 -2.066406 -5.574219 1.09375 -4.257812 3.679688 C -2.9375 6.265625 0.0625 7.507812 2.824219 6.609375 C 5.582031 5.714844 7.28125 2.945312 6.828125 0.078125 C 6.375 -2.789062 3.902344 -4.898438 1 -4.898438 " transform="matrix(1,0,0,1,8,8)"/>
<path style="fill:none;stroke-width:2.2;stroke-linecap:round;stroke-linejoin:miter;stroke:rgb(87.45098%,85.882353%,82.352941%);stroke-opacity:0.298039;stroke-miterlimit:10;" d="M -3.46875 -4.773438 C -5.816406 -3.066406 -6.574219 0.09375 -5.257812 2.679688 C -3.9375 5.265625 -0.9375 6.507812 1.824219 5.609375 C 4.582031 4.714844 6.28125 1.945312 5.828125 -0.921875 C 5.375 -3.789062 2.902344 -5.898438 0 -5.898438 " transform="matrix(1,0,0,1,8,8)"/>
</g>
</svg>
