<?xml version="1.0" encoding="UTF-8"?>
<svg xmlns="http://www.w3.org/2000/svg" xmlns:xlink="http://www.w3.org/1999/xlink" width="16pt" height="16pt" viewBox="0 0 16 16" version="1.1">
<g id="surface61">
<path style="fill:none;stroke-width:2.2;stroke-linecap:round;stroke-linejoin:miter;stroke:rgb(0%,0%,0%);stroke-opacity:0.0679062;stroke-miterlimit:10;" d="M 5.898438 1 C 5.898438 7.535156 -3.898438 7.535156 -3.898438 1 C -3.898438 -5.535156 5.898438 -5.535156 5.898438 1 " transform="matrix(1,0,0,1,8,8)"/>
<path style="fill:none;stroke-width:2.2;stroke-linecap:round;stroke-linejoin:miter;stroke:rgb(0%,0%,0%);stroke-opacity:0.275777;stroke-miterlimit:10;" d="M -2.964844 3.878906 C -0.8125 6.839844 3.703125 6.484375 5.367188 3.222656 C 7.027344 -0.0351562 4.660156 -3.898438 1 -3.898438 " transform="matrix(1,0,0,1,8,8)"/>
<path style="fill:none;stroke-width:2.2;stroke-linecap:round;stroke-linejoin:miter;stroke:rgb(87.45098%,85.882353%,82.352941%);stroke-opacity:0.298039;stroke-miterlimit:10;" d="M 4.898438 0 C 4.898438 6.535156 -4.898438 6.535156 -4.898438 0 C -4.898438 -6.535156 4.898438 -6.535156 4.898438 0 " transform="matrix(1,0,0,1,8,8)"/>
<path style="fill:none;stroke-width:2.2;stroke-linecap:round;stroke-linejoin:miter;stroke:rgb(87.45098%,85.882353%,82.352941%);stroke-opacity:1;stroke-miterlimit:10;" d="M -3.964844 2.878906 C -1.8125 5.839844 2.703125 5.484375 4.367188 2.222656 C 6.027344 -1.035156 3.660156 -4.898438 0 -4.898438 " transform="matrix(1,0,0,1,8,8)"/>
</g>
</svg>
