<?xml version="1.0" encoding="UTF-8"?>
<svg xmlns="http://www.w3.org/2000/svg" xmlns:xlink="http://www.w3.org/1999/xlink" width="16pt" height="16pt" viewBox="0 0 16 16" version="1.1">
<g id="surface133">
<path style="fill:none;stroke-width:2.2;stroke-linecap:round;stroke-linejoin:miter;stroke:rgb(0%,0%,0%);stroke-opacity:0.0679062;stroke-miterlimit:10;" d="M 5.898438 1 C 5.898438 7.535156 -3.898438 7.535156 -3.898438 1 C -3.898438 -5.535156 5.898438 -5.535156 5.898438 1 " transform="matrix(1,0,0,1,8,8)"/>
<path style="fill:none;stroke-width:2.2;stroke-linecap:round;stroke-linejoin:miter;stroke:rgb(0%,0%,0%);stroke-opacity:0.275777;stroke-miterlimit:10;" d="M 5.660156 -0.515625 C 5.003906 -2.53125 3.121094 -3.898438 1 -3.898438 " transform="matrix(1,0,0,1,8,8)"/>
<path style="fill:none;stroke-width:2.2;stroke-linecap:round;stroke-linejoin:miter;stroke:rgb(87.45098%,85.882353%,82.352941%);stroke-opacity:0.298039;stroke-miterlimit:10;" d="M 4.898438 0 C 4.898438 6.535156 -4.898438 6.535156 -4.898438 0 C -4.898438 -6.535156 4.898438 -6.535156 4.898438 0 " transform="matrix(1,0,0,1,8,8)"/>
<path style="fill:none;stroke-width:2.2;stroke-linecap:round;stroke-linejoin:miter;stroke:rgb(87.45098%,85.882353%,82.352941%);stroke-opacity:1;stroke-miterlimit:10;" d="M 4.660156 -1.515625 C 4.003906 -3.53125 2.121094 -4.898438 0 -4.898438 " transform="matrix(1,0,0,1,8,8)"/>
</g>
</svg>
