<?xml version="1.0" encoding="UTF-8"?>
<svg xmlns="http://www.w3.org/2000/svg" xmlns:xlink="http://www.w3.org/1999/xlink" width="16pt" height="16pt" viewBox="0 0 16 16" version="1.1">
<defs>
<clipPath id="clip1">
  <path d="M 0 0 L 16 0 L 16 5.800781 L 0 5.800781 Z M 0 5.800781 L 5.800781 5.800781 L 5.800781 16 L 0 16 Z M 0 5.800781 "/>
</clipPath>
</defs>
<g id="surface25">
<path style="fill:none;stroke-width:2.2;stroke-linecap:butt;stroke-linejoin:miter;stroke:rgb(0%,0%,0%);stroke-opacity:0.298039;stroke-miterlimit:10;" d="M 1.101562 0 L 1.101562 6 M 4.898438 0 L 4.898438 6 " transform="matrix(1,0,0,1,9,9)"/>
<path style="fill:none;stroke-width:2.2;stroke-linecap:butt;stroke-linejoin:miter;stroke:rgb(87.45098%,85.882353%,82.352941%);stroke-opacity:1;stroke-miterlimit:10;" d="M 1.101562 0 L 1.101562 6 M 4.898438 0 L 4.898438 6 " transform="matrix(1,0,0,1,8,8)"/>
<g clip-path="url(#clip1)" clip-rule="nonzero">
<path style="fill:none;stroke-width:2.2;stroke-linecap:round;stroke-linejoin:miter;stroke:rgb(0%,0%,0%);stroke-opacity:0.0679062;stroke-miterlimit:10;" d="M 5.898438 1 C 5.898438 7.535156 -3.898438 7.535156 -3.898438 1 C -3.898438 -5.535156 5.898438 -5.535156 5.898438 1 " transform="matrix(1,0,0,1,8,8)"/>
<path style="fill:none;stroke-width:2.2;stroke-linecap:round;stroke-linejoin:miter;stroke:rgb(0%,0%,0%);stroke-opacity:0.275777;stroke-miterlimit:10;" d="M -2.964844 -1.878906 C -5.992188 2.285156 -1.363281 7.703125 3.222656 5.367188 C 7.8125 3.027344 6.152344 -3.898438 1 -3.898438 " transform="matrix(1,0,0,1,8,8)"/>
<path style="fill:none;stroke-width:2.2;stroke-linecap:round;stroke-linejoin:miter;stroke:rgb(87.45098%,85.882353%,82.352941%);stroke-opacity:0.298039;stroke-miterlimit:10;" d="M 4.898438 0 C 4.898438 6.535156 -4.898438 6.535156 -4.898438 0 C -4.898438 -6.535156 4.898438 -6.535156 4.898438 0 " transform="matrix(1,0,0,1,8,8)"/>
<path style="fill:none;stroke-width:2.2;stroke-linecap:round;stroke-linejoin:miter;stroke:rgb(87.45098%,85.882353%,82.352941%);stroke-opacity:1;stroke-miterlimit:10;" d="M -3.964844 -2.878906 C -6.992188 1.285156 -2.363281 6.703125 2.222656 4.367188 C 6.8125 2.027344 5.152344 -4.898438 0 -4.898438 " transform="matrix(1,0,0,1,8,8)"/>
</g>
</g>
</svg>
