<?xml version="1.0" encoding="UTF-8" standalone="no"?>
<!-- Created with Inkscape (http://www.inkscape.org/) -->

<svg
   xmlns:dc="http://purl.org/dc/elements/1.1/"
   xmlns:cc="http://creativecommons.org/ns#"
   xmlns:rdf="http://www.w3.org/1999/02/22-rdf-syntax-ns#"
   xmlns:svg="http://www.w3.org/2000/svg"
   xmlns="http://www.w3.org/2000/svg"
   xmlns:sodipodi="http://sodipodi.sourceforge.net/DTD/sodipodi-0.dtd"
   xmlns:inkscape="http://www.inkscape.org/namespaces/inkscape"
   version="1.1"
   width="16"
   height="16.024"
   id="svg7384"
   inkscape:version="0.48.2 r9819"
   sodipodi:docname="timer-symbolic.svg">
  <sodipodi:namedview
     pagecolor="#ffffff"
     bordercolor="#666666"
     borderopacity="1"
     objecttolerance="10"
     gridtolerance="10"
     guidetolerance="10"
     inkscape:pageopacity="0"
     inkscape:pageshadow="2"
     inkscape:window-width="739"
     inkscape:window-height="480"
     id="namedview16"
     showgrid="false"
     inkscape:zoom="14.727908"
     inkscape:cx="8"
     inkscape:cy="8.0120001"
     inkscape:window-x="0"
     inkscape:window-y="26"
     inkscape:window-maximized="0"
     inkscape:current-layer="g2993" />
  <title
     id="title9167">Gnome Symbolic Icon Theme</title>
  <defs
     id="defs10">
    <clipPath
       id="clipPath6259-6-8-25-4">
      <rect
         width="1.8763"
         height="4.8734999"
         x="26.999001"
         y="221.5"
         id="rect6261-4-9-24-2"
         style="color:#bebebe;fill:#bebebe" />
    </clipPath>
    <clipPath
       id="clipPath6265-33-4">
      <rect
         width="2.8977001"
         height="5.2158999"
         x="26.966"
         y="221.33"
         id="rect6267-6-5"
         style="color:#bebebe;fill:#bebebe" />
    </clipPath>
    <clipPath
       id="clipPath6279-6-1">
      <rect
         width="3.825"
         height="6.375"
         x="26.85"
         y="220.75"
         id="rect6281-3-1"
         style="color:#bebebe;fill:#bebebe" />
    </clipPath>
  </defs>
  <metadata
     id="metadata90">
    <rdf:RDF>
      <cc:Work
         rdf:about="">
        <dc:format>image/svg+xml</dc:format>
        <dc:type
           rdf:resource="http://purl.org/dc/dcmitype/StillImage" />
        <dc:title>Gnome Symbolic Icon Theme</dc:title>
      </cc:Work>
    </rdf:RDF>
  </metadata>
  <g
     id="g2993">
    <path
       inkscape:connector-curvature="0"
       d="m 1.01515,8.37222 c 0.10235,2.05874 1.10114,4.00882 2.8125,5.27679 3.09677,2.29444 7.50913,1.65034 9.80357,-1.44643 C 15.92566,9.1058 15.25478,4.69345 12.158,2.39901 a 1.0001,1.0001 0 1 0 -1.17857,1.60714 c 2.2283,1.65097 2.69562,4.76277 1.04465,6.99107 C 10.3731,13.22552 7.2613,13.69284 5.033,12.04186 3.39911,10.83129 2.6559,8.7624 3.158,6.79186 A 1.0001,1.0001 0 1 0 1.22943,6.28294 C 1.05413,6.97092 0.98103,7.68597 1.01515,8.37222 z"
       id="path3031"
       style="font-size:medium;font-style:normal;font-variant:normal;font-weight:normal;font-stretch:normal;text-indent:0;text-align:start;text-decoration:none;line-height:normal;letter-spacing:normal;word-spacing:normal;text-transform:none;direction:ltr;block-progression:tb;writing-mode:lr-tb;text-anchor:start;baseline-shift:baseline;color:#000000;fill:#bebebe;fill-opacity:1;stroke:none;stroke-width:2.33333325;marker:none;visibility:visible;display:inline;overflow:visible;enable-background:accumulate;font-family:Sans;-inkscape-font-specification:Sans" />
    <path
       inkscape:connector-curvature="0"
       d="m 4,3.03125 c -0.25592,0 -0.52349,0.086 -0.71875,0.28125 C 2.9157099,3.6780401 2.8923279,4.2492062 3.2111039,4.6410523 4.4516914,6.1027005 5.6978935,7.5898051 6.9375,9.0625 c 0.58579,0.58579 1.53921,0.58579 2.125,0 0.58579,-0.58579 0.58579,-1.53921 0,-2.125 C 7.5938651,5.7119486 6.1113855,4.476788 4.6514234,3.2516917 4.4644466,3.099271 4.2276155,3.03125 4,3.03125 z"
       id="path3823"
       style="fill:#bebebe;fill-opacity:1;stroke:none" />
    <path
       style="fill:#bebebe;stroke:none"
       id="path3023"
       d="m 10,2.0240002 a 2,2 0 0 1 -4,0 2,2 0 1 1 4,0 z" />
  </g>
</svg>
