<?xml version="1.0" encoding="UTF-8" standalone="no"?>
<!-- Created with Inkscape (http://www.inkscape.org/) -->

<svg
   xmlns:dc="http://purl.org/dc/elements/1.1/"
   xmlns:cc="http://creativecommons.org/ns#"
   xmlns:rdf="http://www.w3.org/1999/02/22-rdf-syntax-ns#"
   xmlns:svg="http://www.w3.org/2000/svg"
   xmlns="http://www.w3.org/2000/svg"
   version="1.1"
   width="16"
   height="16.024"
   id="svg7384">
  <title
     id="title9167">Gnome Symbolic Icon Theme</title>
  <defs
     id="defs10">
    <clipPath
       id="clipPath6259-6-8-25-4">
      <rect
         width="1.8763"
         height="4.8734999"
         x="26.999001"
         y="221.5"
         id="rect6261-4-9-24-2"
         style="color:#bebebe;fill:#bebebe" />
    </clipPath>
    <clipPath
       id="clipPath6265-33-4">
      <rect
         width="2.8977001"
         height="5.2158999"
         x="26.966"
         y="221.33"
         id="rect6267-6-5"
         style="color:#bebebe;fill:#bebebe" />
    </clipPath>
    <clipPath
       id="clipPath6279-6-1">
      <rect
         width="3.825"
         height="6.375"
         x="26.85"
         y="220.75"
         id="rect6281-3-1"
         style="color:#bebebe;fill:#bebebe" />
    </clipPath>
  </defs>
  <metadata
     id="metadata90">
    <rdf:RDF>
      <cc:Work
         rdf:about="">
        <dc:format>image/svg+xml</dc:format>
        <dc:type
           rdf:resource="http://purl.org/dc/dcmitype/StillImage" />
        <dc:title>Gnome Symbolic Icon Theme</dc:title>
      </cc:Work>
    </rdf:RDF>
  </metadata>
  <g
     transform="translate(-100,-685.98)"
     id="layer12">
    <path
       d="m 101.01515,694.35222 c 0.10235,2.05874 1.10114,4.00882 2.8125,5.27679 3.09677,2.29444 7.50913,1.65034 9.80357,-1.44643 2.29444,-3.09678 1.62356,-7.50913 -1.47322,-9.80357 a 1.0001,1.0001 0 1 0 -1.17857,1.60714 c 2.2283,1.65097 2.69562,4.76277 1.04465,6.99107 -1.65098,2.2283 -4.76278,2.69562 -6.99108,1.04464 -1.63389,-1.21057 -2.3771,-3.27946 -1.875,-5.25 a 1.0001,1.0001 0 1 0 -1.92857,-0.50892 c -0.1753,0.68798 -0.2484,1.40303 -0.21428,2.08928 z"
       id="path3031"
       style="font-size:medium;font-style:normal;font-variant:normal;font-weight:normal;font-stretch:normal;text-indent:0;text-align:start;text-decoration:none;line-height:normal;letter-spacing:normal;word-spacing:normal;text-transform:none;direction:ltr;block-progression:tb;writing-mode:lr-tb;text-anchor:start;baseline-shift:baseline;color:#000000;fill:#bebebe;fill-opacity:1;stroke:none;stroke-width:2.33333325;marker:none;visibility:visible;display:inline;overflow:visible;enable-background:accumulate;font-family:Sans;-inkscape-font-specification:Sans" />
    <path
       d="m 4,3.03125 c -0.25592,0 -0.52349,0.086 -0.71875,0.28125 C 2.9157099,3.6780401 2.8923279,4.2492062 3.2111039,4.6410523 4.4516914,6.1027005 5.6978935,7.5898051 6.9375,9.0625 c 0.58579,0.58579 1.53921,0.58579 2.125,0 0.58579,-0.58579 0.58579,-1.53921 0,-2.125 C 7.5938651,5.7119486 6.1113855,4.476788 4.6514234,3.2516917 4.4644466,3.099271 4.2276155,3.03125 4,3.03125 z"
       transform="translate(100,685.98)"
       id="path3823"
       style="fill:#bebebe;fill-opacity:1;stroke:none" />
  </g>
  <path
     d="m 10,2.0240002 a 2,2 0 0 1 -4,0 2,2 0 1 1 4,0 z"
     id="path3023"
     style="fill:#bebebe" />
</svg>
