<?xml version="1.0" encoding="UTF-8" standalone="no"?>
<svg
   height="16px"
   viewBox="0 0 16 16"
   width="16px"
   version="1.1"
   id="svg1"
   sodipodi:docname="screen-overlay-close-symbolic.svg"
   inkscape:version="1.3 (0e150ed6c4, 2023-07-21)"
   xmlns:inkscape="http://www.inkscape.org/namespaces/inkscape"
   xmlns:sodipodi="http://sodipodi.sourceforge.net/DTD/sodipodi-0.dtd"
   xmlns="http://www.w3.org/2000/svg"
   xmlns:svg="http://www.w3.org/2000/svg">
  <defs
     id="defs1" />
  <sodipodi:namedview
     id="namedview1"
     pagecolor="#ffffff"
     bordercolor="#666666"
     borderopacity="1.0"
     inkscape:showpageshadow="2"
     inkscape:pageopacity="0.0"
     inkscape:pagecheckerboard="0"
     inkscape:deskcolor="#d1d1d1"
     showgrid="true"
     inkscape:zoom="36.21875"
     inkscape:cx="4.8179465"
     inkscape:cy="8.7247627"
     inkscape:window-width="2262"
     inkscape:window-height="1218"
     inkscape:window-x="26"
     inkscape:window-y="23"
     inkscape:window-maximized="0"
     inkscape:current-layer="svg1">
    <inkscape:grid
       id="grid1"
       units="px"
       originx="0"
       originy="0"
       spacingx="1"
       spacingy="1"
       empcolor="#3f3fff"
       empopacity="0.25098039"
       color="#3f3fff"
       opacity="0.1254902"
       empspacing="5"
       dotted="false"
       gridanglex="30"
       gridanglez="30"
       visible="true" />
  </sodipodi:namedview>
  <path
     style="color:#000000;fill:#2e3436;fill-rule:evenodd;stroke-linecap:round;-inkscape-stroke:none"
     d="m 2.75,1.5 a 1.25,1.25 0 0 0 -0.8847656,0.3652344 1.25,1.25 0 0 0 0,1.7695312 L 12.365234,14.134766 a 1.25,1.25 0 0 0 1.769532,0 1.25,1.25 0 0 0 0,-1.769532 L 3.6347656,1.8652344 A 1.25,1.25 0 0 0 2.75,1.5 Z"
     id="path2" />
  <path
     style="color:#000000;fill:#2e3436;fill-rule:evenodd;stroke-linecap:round;-inkscape-stroke:none"
     d="M 13.25,1.5 A 1.25,1.25 0 0 0 12.365234,1.8652344 L 1.8652344,12.365234 a 1.25,1.25 0 0 0 0,1.769532 1.25,1.25 0 0 0 1.7695312,0 L 14.134766,3.6347656 a 1.25,1.25 0 0 0 0,-1.7695312 A 1.25,1.25 0 0 0 13.25,1.5 Z"
     id="path3" />
</svg>
