<?xml version="1.0" encoding="UTF-8" standalone="no"?>
<svg
   width="32"
   height="32"
   version="1.1"
   id="svg465"
   sodipodi:docname="gnome-pomodoro-do-not-touch-symbolic.svg"
   xml:space="preserve"
   inkscape:version="1.3.2 (091e20ef0f, 2023-11-25)"
   xmlns:inkscape="http://www.inkscape.org/namespaces/inkscape"
   xmlns:sodipodi="http://sodipodi.sourceforge.net/DTD/sodipodi-0.dtd"
   xmlns="http://www.w3.org/2000/svg"
   xmlns:svg="http://www.w3.org/2000/svg"><defs
     id="defs469"><clipPath
       clipPathUnits="userSpaceOnUse"
       id="clipPath21"><rect
         style="fill:#26a269;fill-opacity:1;stroke:none;stroke-width:3.57563;stroke-linecap:round;stroke-linejoin:round;stroke-dasharray:none;stroke-dashoffset:4.2;stroke-opacity:1"
         id="rect22"
         width="29.534349"
         height="17.282818"
         x="3.7087166"
         y="16.851395"
         transform="rotate(90)" /></clipPath></defs><sodipodi:namedview
     id="namedview467"
     pagecolor="#ffffff"
     bordercolor="#666666"
     borderopacity="1.0"
     inkscape:showpageshadow="2"
     inkscape:pageopacity="0.0"
     inkscape:pagecheckerboard="0"
     inkscape:deskcolor="#d1d1d1"
     showgrid="true"
     inkscape:zoom="32.093751"
     inkscape:cx="12.214216"
     inkscape:cy="22.636806"
     inkscape:window-width="2347"
     inkscape:window-height="1043"
     inkscape:window-x="2016"
     inkscape:window-y="129"
     inkscape:window-maximized="0"
     inkscape:current-layer="svg465"><inkscape:grid
       type="xygrid"
       id="grid866"
       originx="0"
       originy="0"
       spacingy="1"
       spacingx="1"
       units="px"
       visible="true" /></sodipodi:namedview><path
     style="color:#000000;fill:#2e3436;fill-rule:evenodd;-inkscape-stroke:none"
     d="M 4.5851026,3.6888921 2.8175245,5.4564702 27.5519,30.192798 29.321431,28.42522 Z"
     id="path16" /><path
     id="rect7"
     style="fill:#2e3436;fill-opacity:1;stroke:none;stroke-width:3.88945;stroke-linecap:round;stroke-linejoin:round;stroke-dashoffset:4.2"
     d="M 15,0 C 13.892003,0 13,0.8828542 13,1.9804688 V 9.6347656 L 26.849609,23.400391 A 9.896698,8.8835831 0 0 0 26.986328,22 9.896698,8.8835831 0 0 0 26.980469,21.695312 C 26.992174,21.608242 27,21.520015 27,21.429688 V 7.9804688 C 27,6.8828541 26.107997,6 25,6 23.892003,6 23,6.8828541 23,7.9804688 V 13.099609 H 22 V 2.9804688 C 22,1.8828541 21.107997,1 20,1 18.892003,1 18,1.8828541 18,2.9804688 V 13.099609 H 17 V 1.9804688 C 17,0.8828542 16.107997,0 15,0 Z M 10,1 C 8.892003,1 8,1.8828541 8,2.9804688 V 4.6660156 L 12,8.640625 V 2.9804688 C 12,1.8828541 11.107997,1 10,1 Z M 2.978516,13 c -0.0091,1.57e-4 -0.0182,0.0017 -0.02734,0.002 -0.03512,0.0011 -0.07043,0.0049 -0.105469,0.0078 -0.02541,0.0021 -0.0508,0.0027 -0.07617,0.0059 -0.04464,0.0054 -0.08855,0.01499 -0.132812,0.02344 -0.0182,0.0035 -0.03655,0.0058 -0.05469,0.0098 -0.04063,0.0089 -0.08097,0.01975 -0.121094,0.03125 -0.02343,0.0067 -0.04704,0.0119 -0.07031,0.01953 -0.05683,0.01856 -0.112639,0.04069 -0.167969,0.06445 -0.04691,0.02016 -0.09309,0.04252 -0.138672,0.06641 -0.01879,0.0099 -0.03805,0.0188 -0.05664,0.0293 -0.04616,0.02611 -0.09035,0.05591 -0.134766,0.08594 -0.0083,0.0056 -0.01713,0.0099 -0.02539,0.01563 -0.0012,8.26e-4 -0.0027,0.0011 -0.0039,0.002 -0.03597,0.02523 -0.06889,0.05419 -0.103515,0.08203 -0.02146,0.0171 -0.04386,0.03299 -0.06445,0.05078 -0.0278,0.02428 -0.05529,0.05012 -0.08203,0.07617 -0.01984,0.01915 -0.03969,0.03878 -0.05859,0.05859 -0.0048,0.0051 -0.01087,0.0086 -0.01563,0.01367 -0.01274,0.01372 -0.02287,0.029 -0.03516,0.04297 -0.03327,0.03762 -0.06564,0.07563 -0.0957,0.115234 -0.04069,0.05362 -0.07855,0.109196 -0.113281,0.166016 -0.03322,0.05434 -0.06411,0.109193 -0.0918,0.166016 -0.0041,0.0084 -0.0077,0.01695 -0.01172,0.02539 -0.02512,0.05346 -0.04816,0.106898 -0.06836,0.16211 -0.01999,0.05464 -0.03763,0.110012 -0.05273,0.166015 -0.0055,0.02005 -0.0089,0.04038 -0.01367,0.06055 -0.01074,0.04541 -0.02177,0.09071 -0.0293,0.136719 -0.0025,0.01499 -0.0037,0.02989 -0.0059,0.04492 -0.0061,0.04341 -0.01242,0.08712 -0.01563,0.130859 -0.002,0.02664 -9.53e-4,0.0534 -0.002,0.08008 -0.0013,0.03896 -0.003,0.07815 -0.002,0.117188 0.0011,0.04739 0.0053,0.0954 0.0098,0.142578 5.12e-4,0.0052 -5.54e-4,0.01046 0,0.01563 0.0062,0.06024 0.01562,0.120192 0.02734,0.179687 7.84e-4,0.0039 0.0011,0.0078 0.002,0.01172 0.01265,0.06225 0.03015,0.122634 0.04883,0.183594 0.06773,0.221077 0.173847,0.431026 0.320312,0.621094 l 7.605469,10.96875 c 0.128871,0.185864 0.284531,0.340489 0.457031,0.466797 a 9.896698,8.8835831 0 0 0 7.617188,3.234374 9.896698,8.8835831 0 0 0 6.439453,-2.148437 L 8,13.296875 v 3.132813 0.482421 L 4.447266,13.615234 C 4.276222,13.434849 4.075582,13.293287 3.859375,13.191406 c -0.05889,-0.02775 -0.118579,-0.05249 -0.179688,-0.07422 -0.06004,-0.02135 -0.119919,-0.04119 -0.18164,-0.05664 h -0.002 c -0.0012,-3.13e-4 -0.0027,3.1e-4 -0.0039,0 -0.0546,-0.0135 -0.110449,-0.02632 -0.166015,-0.03516 -0.02906,-0.0047 -0.05869,-0.0083 -0.08789,-0.01172 -0.02989,-0.0034 -0.05979,-0.0058 -0.08984,-0.0078 -0.03525,-0.0025 -0.07015,-0.0033 -0.105468,-0.0039 -0.0215,-3.25e-4 -0.04292,-0.0023 -0.06445,-0.002 z" /></svg>
