<?xml version="1.0" encoding="UTF-8" standalone="no"?>
<!-- Created with Inkscape (http://www.inkscape.org/) -->

<svg
   width="256"
   height="72"
   viewBox="0 0 256 72.000001"
   id="svg3611"
   version="1.1"
   inkscape:version="1.3 (0e150ed6c4, 2023-07-21)"
   sodipodi:docname="enter-keyboard-shortcut.svg"
   xmlns:inkscape="http://www.inkscape.org/namespaces/inkscape"
   xmlns:sodipodi="http://sodipodi.sourceforge.net/DTD/sodipodi-0.dtd"
   xmlns="http://www.w3.org/2000/svg"
   xmlns:svg="http://www.w3.org/2000/svg"
   xmlns:rdf="http://www.w3.org/1999/02/22-rdf-syntax-ns#"
   xmlns:cc="http://creativecommons.org/ns#"
   xmlns:dc="http://purl.org/dc/elements/1.1/">
  <defs
     id="defs3613" />
  <sodipodi:namedview
     id="base"
     pagecolor="#ffffff"
     bordercolor="#666666"
     borderopacity="1.0"
     inkscape:pageopacity="0.0"
     inkscape:pageshadow="2"
     inkscape:zoom="2.8"
     inkscape:cx="94.107143"
     inkscape:cy="26.071429"
     inkscape:document-units="px"
     inkscape:current-layer="layer1"
     showgrid="false"
     units="px"
     inkscape:window-width="1920"
     inkscape:window-height="1011"
     inkscape:window-x="0"
     inkscape:window-y="0"
     inkscape:window-maximized="1"
     inkscape:showpageshadow="2"
     inkscape:pagecheckerboard="0"
     inkscape:deskcolor="#d1d1d1" />
  <metadata
     id="metadata3616">
    <rdf:RDF>
      <cc:Work
         rdf:about="">
        <dc:format>image/svg+xml</dc:format>
        <dc:type
           rdf:resource="http://purl.org/dc/dcmitype/StillImage" />
        <dc:title />
      </cc:Work>
    </rdf:RDF>
  </metadata>
  <g
     inkscape:label="Camada 1"
     inkscape:groupmode="layer"
     id="layer1"
     transform="translate(0,-980.36216)">
    <g
       id="g6"
       inkscape:label="keyboard"
       transform="translate(-503.23415,689.94658)">
      <path
         d="m 509.66363,325.47627 c 5.53002,1.4185 18.51389,1.4185 24.29359,0 0.80721,-0.19813 1.43306,0.67185 1.50029,1.50028 l 1.99751,13.05863 h -1.50028 -28.28862 -1.50029 c 0.66583,-4.35287 1.33167,-8.70575 1.99752,-13.05863 0.12564,-0.82161 0.69518,-1.70681 1.50028,-1.50028 z"
         id="path27275"
         style="fill:#ffffff;fill-opacity:1;stroke:#000000;stroke-width:1.6;stroke-miterlimit:4;stroke-dasharray:none;stroke-opacity:1"
         sodipodi:nodetypes="sssccccss"
         inkscape:connector-curvature="0" />
      <path
         d="m 543.62146,325.47627 c 5.53,1.4185 18.51387,1.4185 24.29357,0 0.80721,-0.19813 1.43308,0.67185 1.50029,1.50028 l 1.99753,13.05863 h -1.5003 -28.28862 -1.50029 c 0.66583,-4.35287 1.33168,-8.70575 1.99752,-13.05863 0.12564,-0.82161 0.69518,-1.70681 1.5003,-1.50028 z"
         id="path27277"
         style="fill:#ffffff;fill-opacity:1;stroke:#000000;stroke-width:1.6;stroke-miterlimit:4;stroke-dasharray:none;stroke-opacity:1"
         sodipodi:nodetypes="sssccccss"
         inkscape:connector-curvature="0" />
      <path
         d="m 577.57927,325.47627 c 5.53,1.4185 18.51387,1.4185 24.29357,0 0.80721,-0.19813 1.43308,0.67185 1.50029,1.50028 l 1.99753,13.05863 h -1.5003 -28.28862 -1.50029 c 0.66583,-4.35287 1.33168,-8.70575 1.99752,-13.05863 0.12564,-0.82161 0.6952,-1.70681 1.5003,-1.50028 z"
         id="path27279"
         style="fill:#ffffff;fill-opacity:1;stroke:#000000;stroke-width:1.6;stroke-miterlimit:4;stroke-dasharray:none;stroke-opacity:1"
         sodipodi:nodetypes="sssccccss"
         inkscape:connector-curvature="0" />
      <path
         d="m 611.12326,325.47627 c 5.53002,1.4185 18.51389,1.4185 24.29359,0 0.80721,-0.19813 1.43306,0.67185 1.50029,1.50028 l 1.99751,13.05863 h -1.50028 -28.28862 -1.50029 c 0.66583,-4.35287 1.33167,-8.70575 1.99752,-13.05863 0.12564,-0.82161 0.69518,-1.70681 1.50028,-1.50028 z"
         id="path5218"
         style="fill:#ffffff;fill-opacity:1;stroke:#000000;stroke-width:1.6;stroke-miterlimit:4;stroke-dasharray:none;stroke-opacity:1"
         sodipodi:nodetypes="sssccccss"
         inkscape:connector-curvature="0" />
      <path
         d="m 645.08109,325.47627 c 5.53,1.4185 18.51387,1.4185 24.29357,0 0.80721,-0.19813 1.43308,0.67185 1.50029,1.50028 l 1.99753,13.05863 h -1.5003 -28.28862 -1.50029 c 0.66583,-4.35287 1.33168,-8.70575 1.99751,-13.05863 0.12565,-0.82161 0.69519,-1.70681 1.50031,-1.50028 z"
         id="path5220"
         style="fill:#ffffff;fill-opacity:1;stroke:#000000;stroke-width:1.6;stroke-miterlimit:4;stroke-dasharray:none;stroke-opacity:1"
         sodipodi:nodetypes="sssccccss"
         inkscape:connector-curvature="0" />
      <path
         d="m 679.0389,325.47627 c 5.53,1.4185 18.51387,1.4185 24.29357,0 0.80721,-0.19813 1.43308,0.67185 1.50029,1.50028 l 1.99753,13.05863 h -1.5003 -28.28862 -1.50029 c 0.66583,-4.35287 1.33168,-8.70575 1.99751,-13.05863 0.12565,-0.82161 0.69521,-1.70681 1.50031,-1.50028 z"
         id="path5222"
         style="fill:#ffffff;fill-opacity:1;stroke:#000000;stroke-width:1.6;stroke-miterlimit:4;stroke-dasharray:none;stroke-opacity:1"
         sodipodi:nodetypes="sssccccss"
         inkscape:connector-curvature="0" />
      <path
         d="m 712.58289,325.47627 c 5.53002,1.4185 18.51389,1.4185 24.29359,0 0.80721,-0.19813 1.43306,0.67185 1.50029,1.50028 l 1.99751,13.05863 h -1.50028 -28.28862 -1.50029 c 0.66583,-4.35287 1.33167,-8.70575 1.99751,-13.05863 0.12565,-0.82161 0.69519,-1.70681 1.50029,-1.50028 z"
         id="path4829"
         style="fill:#ffffff;fill-opacity:1;stroke:#000000;stroke-width:1.6;stroke-miterlimit:4;stroke-dasharray:none;stroke-opacity:1"
         sodipodi:nodetypes="sssccccss"
         inkscape:connector-curvature="0" />
      <path
         d="m 516.19044,335.26648 c 5.53002,1.41851 18.51389,1.41851 24.2936,0 0.8072,-0.19812 1.43306,0.67186 1.50028,1.50029 l 1.99752,13.05863 h -1.50029 -28.28862 -1.50029 c 0.66584,-4.35288 1.33167,-8.70575 1.99752,-13.05863 0.12564,-0.82161 0.69518,-1.70681 1.50028,-1.50029 z"
         id="path3662"
         style="fill:#ffffff;fill-opacity:1;stroke:#000000;stroke-width:1.6;stroke-miterlimit:4;stroke-dasharray:none;stroke-opacity:1"
         sodipodi:nodetypes="sssccccss"
         inkscape:connector-curvature="0" />
      <path
         d="m 550.14827,335.26648 c 5.53,1.41851 18.51387,1.41851 24.29358,0 0.8072,-0.19812 1.43307,0.67186 1.50028,1.50029 l 1.99753,13.05863 h -1.5003 -28.28862 -1.50029 c 0.66584,-4.35288 1.33168,-8.70575 1.99752,-13.05863 0.12564,-0.82161 0.69518,-1.70681 1.5003,-1.50029 z"
         id="path3664"
         style="fill:#ffffff;fill-opacity:1;stroke:#000000;stroke-width:1.6;stroke-miterlimit:4;stroke-dasharray:none;stroke-opacity:1"
         sodipodi:nodetypes="sssccccss"
         inkscape:connector-curvature="0" />
      <path
         d="m 584.10608,335.26648 c 5.53,1.41851 18.51387,1.41851 24.29357,0 0.80721,-0.19812 1.43308,0.67186 1.50029,1.50029 l 1.99753,13.05863 h -1.5003 -28.28862 -1.50029 c 0.66584,-4.35288 1.33168,-8.70575 1.99752,-13.05863 0.12564,-0.82161 0.6952,-1.70681 1.5003,-1.50029 z"
         id="path3666"
         style="fill:#ffffff;fill-opacity:1;stroke:#000000;stroke-width:1.6;stroke-miterlimit:4;stroke-dasharray:none;stroke-opacity:1"
         sodipodi:nodetypes="sssccccss"
         inkscape:connector-curvature="0" />
      <path
         d="m 617.65007,335.26648 c 5.53002,1.41851 18.51389,1.41851 24.29359,0 0.80721,-0.19812 1.43306,0.67186 1.50029,1.50029 l 1.99751,13.05863 h -1.50028 -28.28862 -1.50029 c 0.66584,-4.35288 1.33167,-8.70575 1.99752,-13.05863 0.12564,-0.82161 0.69518,-1.70681 1.50028,-1.50029 z"
         id="path3668"
         style="fill:#ffffff;fill-opacity:1;stroke:#000000;stroke-width:1.6;stroke-miterlimit:4;stroke-dasharray:none;stroke-opacity:1"
         sodipodi:nodetypes="sssccccss"
         inkscape:connector-curvature="0" />
      <path
         d="m 651.6079,335.26648 c 5.53,1.41851 18.51387,1.41851 24.29357,0 0.80721,-0.19812 1.43308,0.67186 1.50029,1.50029 l 1.99753,13.05863 h -1.5003 -28.28862 -1.50029 c 0.66583,-4.35288 1.33168,-8.70575 1.99752,-13.05863 0.12564,-0.82161 0.69518,-1.70681 1.5003,-1.50029 z"
         id="path3670"
         style="fill:#ffffff;fill-opacity:1;stroke:#000000;stroke-width:1.6;stroke-miterlimit:4;stroke-dasharray:none;stroke-opacity:1"
         sodipodi:nodetypes="sssccccss"
         inkscape:connector-curvature="0" />
      <path
         d="m 685.56571,335.26648 c 5.53,1.41851 18.51387,1.41851 24.29357,0 0.80721,-0.19812 1.43308,0.67186 1.50029,1.50029 l 1.99753,13.05863 h -1.5003 -28.28862 -1.50029 c 0.66583,-4.35288 1.33168,-8.70575 1.99752,-13.05863 0.12564,-0.82161 0.6952,-1.70681 1.5003,-1.50029 z"
         id="path3672"
         style="fill:#ffffff;fill-opacity:1;stroke:#000000;stroke-width:1.6;stroke-miterlimit:4;stroke-dasharray:none;stroke-opacity:1"
         sodipodi:nodetypes="sssccccss"
         inkscape:connector-curvature="0" />
      <path
         d="m 719.1097,335.26648 c 5.53002,1.41851 18.51389,1.41851 24.29359,0 0.80721,-0.19812 1.43306,0.67186 1.50029,1.50029 l 1.99751,13.05863 h -1.50028 -28.28862 -1.50029 c 0.66583,-4.35288 1.33167,-8.70575 1.99752,-13.05863 0.12564,-0.82161 0.69518,-1.70681 1.50028,-1.50029 z"
         id="path3674"
         style="fill:#ffffff;fill-opacity:1;stroke:#000000;stroke-width:1.6;stroke-miterlimit:4;stroke-dasharray:none;stroke-opacity:1"
         sodipodi:nodetypes="sssccccss"
         inkscape:connector-curvature="0" />
      <path
         d="m 525.98066,345.0567 c 5.53002,1.4185 18.51389,1.4185 24.29359,0 0.80721,-0.19812 1.43306,0.67185 1.50029,1.50029 l 1.99751,13.05863 h -1.50028 -28.28862 -1.50029 c 0.66583,-4.35288 1.33167,-8.70576 1.99752,-13.05863 0.12564,-0.82162 0.69518,-1.70681 1.50028,-1.50029 z"
         id="path3676"
         style="fill:#ffffff;fill-opacity:1;stroke:#000000;stroke-width:1.6;stroke-miterlimit:4;stroke-dasharray:none;stroke-opacity:1"
         sodipodi:nodetypes="sssccccss"
         inkscape:connector-curvature="0" />
      <path
         d="m 559.93849,345.0567 c 5.53,1.4185 18.51387,1.4185 24.29357,0 0.80721,-0.19812 1.43308,0.67185 1.50029,1.50029 l 1.99753,13.05863 h -1.5003 -28.28862 -1.50029 c 0.66583,-4.35288 1.33168,-8.70576 1.99751,-13.05863 0.12565,-0.82162 0.69519,-1.70681 1.50031,-1.50029 z"
         id="path3678"
         style="fill:#ffffff;fill-opacity:1;stroke:#000000;stroke-width:1.6;stroke-miterlimit:4;stroke-dasharray:none;stroke-opacity:1"
         sodipodi:nodetypes="sssccccss"
         inkscape:connector-curvature="0" />
      <path
         d="m 593.8963,345.0567 c 5.53,1.4185 18.51387,1.4185 24.29357,0 0.80721,-0.19812 1.43308,0.67185 1.50029,1.50029 l 1.99753,13.05863 h -1.5003 -28.28862 -1.50029 c 0.66583,-4.35288 1.33168,-8.70576 1.99751,-13.05863 0.12565,-0.82162 0.69521,-1.70681 1.50031,-1.50029 z"
         id="path3680"
         style="fill:#ffffff;fill-opacity:1;stroke:#000000;stroke-width:1.6;stroke-miterlimit:4;stroke-dasharray:none;stroke-opacity:1"
         sodipodi:nodetypes="sssccccss"
         inkscape:connector-curvature="0" />
      <path
         d="m 627.44029,345.0567 c 5.53002,1.4185 18.51389,1.4185 24.29359,0 0.80721,-0.19812 1.43306,0.67185 1.50029,1.50029 l 1.99751,13.05863 h -1.50028 -28.28862 -1.50029 c 0.66583,-4.35288 1.33167,-8.70576 1.99751,-13.05863 0.12565,-0.82162 0.69519,-1.70681 1.50029,-1.50029 z"
         id="path3682"
         style="fill:#ffffff;fill-opacity:1;stroke:#000000;stroke-width:1.6;stroke-miterlimit:4;stroke-dasharray:none;stroke-opacity:1"
         sodipodi:nodetypes="sssccccss"
         inkscape:connector-curvature="0" />
      <path
         d="m 661.39812,345.0567 c 5.53,1.4185 18.51387,1.4185 24.29357,0 0.80721,-0.19812 1.43308,0.67185 1.50029,1.50029 l 1.99753,13.05863 h -1.5003 -28.28863 -1.50028 c 0.66583,-4.35288 1.33168,-8.70576 1.99751,-13.05863 0.12564,-0.82162 0.69519,-1.70681 1.50031,-1.50029 z"
         id="path3684"
         style="fill:#ffffff;fill-opacity:1;stroke:#000000;stroke-width:1.6;stroke-miterlimit:4;stroke-dasharray:none;stroke-opacity:1"
         sodipodi:nodetypes="sssccccss"
         inkscape:connector-curvature="0" />
      <path
         d="m 695.35593,345.0567 c 5.53,1.4185 18.51387,1.4185 24.29357,0 0.8072,-0.19812 1.43308,0.67185 1.50029,1.50029 l 1.99753,13.05863 h -1.5003 -28.28863 -1.50028 c 0.66583,-4.35288 1.33168,-8.70576 1.99751,-13.05863 0.12564,-0.82162 0.69521,-1.70681 1.50031,-1.50029 z"
         id="path3686"
         style="fill:#ffffff;fill-opacity:1;stroke:#000000;stroke-width:1.6;stroke-miterlimit:4;stroke-dasharray:none;stroke-opacity:1"
         sodipodi:nodetypes="sssccccss"
         inkscape:connector-curvature="0" />
      <path
         d="m 728.89992,345.0567 c 5.53002,1.4185 18.51389,1.4185 24.29359,0 0.8072,-0.19812 1.43306,0.67185 1.50029,1.50029 l 1.99751,13.05863 h -1.50028 -28.28863 -1.50028 c 0.66583,-4.35288 1.33166,-8.70576 1.99751,-13.05863 0.12564,-0.82162 0.69519,-1.70681 1.50029,-1.50029 z"
         id="path3688"
         style="fill:#ffffff;fill-opacity:1;stroke:#000000;stroke-width:1.6;stroke-miterlimit:4;stroke-dasharray:none;stroke-opacity:1"
         sodipodi:nodetypes="sssccccss"
         inkscape:connector-curvature="0" />
    </g>
    <g
       id="g1"
       inkscape:label="arrow1"
       transform="translate(-503.23415,689.94658)">
      <path
         id="path3715"
         style="color:#bebebe;font-family:'Andale Mono';-inkscape-font-specification:'Andale Mono';display:inline;overflow:visible;fill:#ffffff;stroke:#000000;stroke-width:2.42206;marker:none;enable-background:new"
         transform="matrix(1.359752,0,0,1.359752,418.09336,-671.08525)"
         d="m 100.1582,708.92773 v 9.51368 l -2.998044,-3.02539 c -0.212318,-0.22989 -0.512093,-0.33054 -0.818359,-0.30664 H 95.25 v 1.08984 c -1.31e-4,0.0113 -5.02e-4,0.0238 0,0.0352 0.01222,0.27811 0.141161,0.55622 0.341797,0.75 l 5.691403,5.76171 5.66016,-5.76171 c 0.20529,-0.20533 0.30664,-0.49576 0.30664,-0.78516 v -1.08984 h -1.0918 c -0.28941,0 -0.57793,0.10139 -0.7832,0.30664 l -3.0332,3.08593 v -9.57422 z"
         inkscape:label="outline" />
      <path
         id="path1"
         style="color:#bebebe;font-family:'Andale Mono';-inkscape-font-specification:'Andale Mono';display:inline;overflow:visible;fill:#ffffff;stroke-width:2.42206;marker:none;enable-background:new"
         d="m 100.1582,708.92773 v 9.51368 l -2.998044,-3.02539 c -0.212318,-0.22989 -0.512093,-0.33054 -0.818359,-0.30664 H 95.25 v 1.08984 c -1.31e-4,0.0113 -5.02e-4,0.0238 0,0.0352 0.01222,0.27811 0.141161,0.55622 0.341797,0.75 l 5.691403,5.76171 5.66016,-5.76171 c 0.20529,-0.20533 0.30664,-0.49576 0.30664,-0.78516 v -1.08984 h -1.0918 c -0.28941,0 -0.57793,0.10139 -0.7832,0.30664 l -3.0332,3.08593 v -9.57422 z"
         transform="matrix(1.359752,0,0,1.359752,418.09336,-671.08525)"
         inkscape:label="arrow" />
    </g>
    <g
       id="g3"
       inkscape:label="arrow2"
       transform="translate(-435.20527,699.73632)">
      <path
         id="path2"
         style="color:#bebebe;font-family:'Andale Mono';-inkscape-font-specification:'Andale Mono';display:inline;overflow:visible;fill:#ffffff;stroke:#000000;stroke-width:2.42206;marker:none;enable-background:new"
         transform="matrix(1.359752,0,0,1.359752,418.09336,-671.08525)"
         d="m 100.1582,708.92773 v 9.51368 l -2.998044,-3.02539 c -0.212318,-0.22989 -0.512093,-0.33054 -0.818359,-0.30664 H 95.25 v 1.08984 c -1.31e-4,0.0113 -5.02e-4,0.0238 0,0.0352 0.01222,0.27811 0.141161,0.55622 0.341797,0.75 l 5.691403,5.76171 5.66016,-5.76171 c 0.20529,-0.20533 0.30664,-0.49576 0.30664,-0.78516 v -1.08984 h -1.0918 c -0.28941,0 -0.57793,0.10139 -0.7832,0.30664 l -3.0332,3.08593 v -9.57422 z"
         inkscape:label="outline" />
      <path
         id="path3"
         style="color:#bebebe;font-family:'Andale Mono';-inkscape-font-specification:'Andale Mono';display:inline;overflow:visible;fill:#ffffff;stroke-width:2.42206;marker:none;enable-background:new"
         d="m 100.1582,708.92773 v 9.51368 l -2.998044,-3.02539 c -0.212318,-0.22989 -0.512093,-0.33054 -0.818359,-0.30664 H 95.25 v 1.08984 c -1.31e-4,0.0113 -5.02e-4,0.0238 0,0.0352 0.01222,0.27811 0.141161,0.55622 0.341797,0.75 l 5.691403,5.76171 5.66016,-5.76171 c 0.20529,-0.20533 0.30664,-0.49576 0.30664,-0.78516 v -1.08984 h -1.0918 c -0.28941,0 -0.57793,0.10139 -0.7832,0.30664 l -3.0332,3.08593 v -9.57422 z"
         inkscape:label="arrow"
         transform="matrix(1.359752,0,0,1.359752,418.09336,-671.08525)" />
    </g>
    <g
       id="g5"
       inkscape:label="arrow3"
       transform="translate(-333.11672,699.6881)">
      <path
         id="path4"
         style="color:#bebebe;font-family:'Andale Mono';-inkscape-font-specification:'Andale Mono';display:inline;overflow:visible;fill:#ffffff;stroke:#000000;stroke-width:2.42206;marker:none;enable-background:new"
         transform="matrix(1.359752,0,0,1.359752,418.09336,-671.08525)"
         d="m 100.1582,708.92773 v 9.51368 l -2.998044,-3.02539 c -0.212318,-0.22989 -0.512093,-0.33054 -0.818359,-0.30664 H 95.25 v 1.08984 c -1.31e-4,0.0113 -5.02e-4,0.0238 0,0.0352 0.01222,0.27811 0.141161,0.55622 0.341797,0.75 l 5.691403,5.76171 5.66016,-5.76171 c 0.20529,-0.20533 0.30664,-0.49576 0.30664,-0.78516 v -1.08984 h -1.0918 c -0.28941,0 -0.57793,0.10139 -0.7832,0.30664 l -3.0332,3.08593 v -9.57422 z"
         inkscape:label="outline" />
      <path
         id="path5"
         style="color:#bebebe;font-family:'Andale Mono';-inkscape-font-specification:'Andale Mono';display:inline;overflow:visible;fill:#ffffff;stroke-width:2.42206;marker:none;enable-background:new"
         d="m 100.1582,708.92773 v 9.51368 l -2.998044,-3.02539 c -0.212318,-0.22989 -0.512093,-0.33054 -0.818359,-0.30664 H 95.25 v 1.08984 c -1.31e-4,0.0113 -5.02e-4,0.0238 0,0.0352 0.01222,0.27811 0.141161,0.55622 0.341797,0.75 l 5.691403,5.76171 5.66016,-5.76171 c 0.20529,-0.20533 0.30664,-0.49576 0.30664,-0.78516 v -1.08984 h -1.0918 c -0.28941,0 -0.57793,0.10139 -0.7832,0.30664 l -3.0332,3.08593 v -9.57422 z"
         inkscape:label="arrow"
         transform="matrix(1.359752,0,0,1.359752,418.09336,-671.08525)" />
    </g>
  </g>
</svg>
