<?xml version="1.0" encoding="UTF-8"?>
<svg xmlns="http://www.w3.org/2000/svg" xmlns:xlink="http://www.w3.org/1999/xlink" width="16pt" height="16pt" viewBox="0 0 16 16" version="1.1">
<defs>
<clipPath id="clip1">
  <path d="M 0 0 L 16 0 L 16 6.800781 L 0 6.800781 Z M 0 6.800781 L 6.800781 6.800781 L 6.800781 16 L 0 16 Z M 0 6.800781 "/>
</clipPath>
</defs>
<g id="surface529">
<path style="fill:none;stroke-width:2.2;stroke-linecap:butt;stroke-linejoin:miter;stroke:rgb(100%,100%,100%);stroke-opacity:0.298039;stroke-miterlimit:10;" d="M 1.101562 0 L 1.101562 6 M 4.898438 0 L 4.898438 6 " transform="matrix(1,0,0,1,10,10)"/>
<path style="fill:none;stroke-width:2.2;stroke-linecap:butt;stroke-linejoin:miter;stroke:rgb(23.529412%,23.529412%,23.529412%);stroke-opacity:1;stroke-miterlimit:10;" d="M 1.101562 0 L 1.101562 6 M 4.898438 0 L 4.898438 6 " transform="matrix(1,0,0,1,9,9)"/>
<g clip-path="url(#clip1)" clip-rule="nonzero">
<path style="fill:none;stroke-width:2.2;stroke-linecap:round;stroke-linejoin:miter;stroke:rgb(100%,100%,100%);stroke-opacity:0.0473356;stroke-miterlimit:10;" d="M -3.773438 -2.46875 C -5.375 -0.261719 -5.257812 2.757812 -3.488281 4.832031 C -1.714844 6.90625 1.246094 7.496094 3.679688 6.257812 C 6.109375 5.019531 7.375 2.273438 6.738281 -0.378906 C 6.101562 -3.03125 3.726562 -4.898438 1 -4.898438 " transform="matrix(1,0,0,1,8,8)"/>
<path style="fill:none;stroke-width:2.2;stroke-linecap:round;stroke-linejoin:miter;stroke:rgb(23.529412%,23.529412%,23.529412%);stroke-opacity:0.235294;stroke-miterlimit:10;" d="M -4.773438 -3.46875 C -6.375 -1.261719 -6.257812 1.757812 -4.488281 3.832031 C -2.714844 5.90625 0.246094 6.496094 2.679688 5.257812 C 5.109375 4.019531 6.375 1.273438 5.738281 -1.378906 C 5.101562 -4.03125 2.726562 -5.898438 0 -5.898438 " transform="matrix(1,0,0,1,8,8)"/>
</g>
</g>
</svg>
