<?xml version="1.0" encoding="UTF-8"?>
<svg xmlns="http://www.w3.org/2000/svg" xmlns:xlink="http://www.w3.org/1999/xlink" width="16pt" height="16pt" viewBox="0 0 16 16" version="1.1">
<g id="surface541">
<path style="fill:none;stroke-width:2.2;stroke-linecap:round;stroke-linejoin:miter;stroke:rgb(100%,100%,100%);stroke-opacity:0.0473356;stroke-miterlimit:10;" d="M -4.609375 -0.824219 C -5.402344 1.609375 -4.535156 4.269531 -2.46875 5.773438 C -0.398438 7.277344 2.398438 7.277344 4.46875 5.773438 C 6.535156 4.269531 7.402344 1.609375 6.609375 -0.824219 C 5.820312 -3.253906 3.554688 -4.898438 1 -4.898438 " transform="matrix(1,0,0,1,8,8)"/>
<path style="fill:none;stroke-width:2.2;stroke-linecap:round;stroke-linejoin:miter;stroke:rgb(23.529412%,23.529412%,23.529412%);stroke-opacity:0.235294;stroke-miterlimit:10;" d="M -5.609375 -1.824219 C -6.402344 0.609375 -5.535156 3.269531 -3.46875 4.773438 C -1.398438 6.277344 1.398438 6.277344 3.46875 4.773438 C 5.535156 3.269531 6.402344 0.609375 5.609375 -1.824219 C 4.820312 -4.253906 2.554688 -5.898438 0 -5.898438 " transform="matrix(1,0,0,1,8,8)"/>
</g>
</svg>
