<?xml version="1.0" encoding="UTF-8"?>
<svg xmlns="http://www.w3.org/2000/svg" xmlns:xlink="http://www.w3.org/1999/xlink" width="16pt" height="16pt" viewBox="0 0 16 16" version="1.1">
<g id="surface5">
<path style="fill:none;stroke-width:2.2;stroke-linecap:round;stroke-linejoin:miter;stroke:rgb(100%,100%,100%);stroke-opacity:0.0473356;stroke-miterlimit:10;" d="M 5.898438 1 C 5.898438 7.535156 -3.898438 7.535156 -3.898438 1 C -3.898438 -5.535156 5.898438 -5.535156 5.898438 1 " transform="matrix(1,0,0,1,8,8)"/>
<path style="fill:none;stroke-width:2.2;stroke-linecap:round;stroke-linejoin:miter;stroke:rgb(100%,100%,100%);stroke-opacity:0.282521;stroke-miterlimit:10;" d="M 1 -3.898438 C -5.535156 -3.898438 -5.535156 5.898438 1 5.898438 C 7.535156 5.898438 7.535156 -3.898438 1 -3.898438 " transform="matrix(1,0,0,1,8,8)"/>
<path style="fill:none;stroke-width:2.2;stroke-linecap:round;stroke-linejoin:miter;stroke:rgb(23.529412%,23.529412%,23.529412%);stroke-opacity:0.235294;stroke-miterlimit:10;" d="M 4.898438 0 C 4.898438 6.535156 -4.898438 6.535156 -4.898438 0 C -4.898438 -6.535156 4.898438 -6.535156 4.898438 0 " transform="matrix(1,0,0,1,8,8)"/>
<path style="fill:none;stroke-width:2.2;stroke-linecap:round;stroke-linejoin:miter;stroke:rgb(23.529412%,23.529412%,23.529412%);stroke-opacity:1;stroke-miterlimit:10;" d="M 0 -4.898438 C -6.535156 -4.898438 -6.535156 4.898438 0 4.898438 C 6.535156 4.898438 6.535156 -4.898438 0 -4.898438 " transform="matrix(1,0,0,1,8,8)"/>
</g>
</svg>
